G04 #@! TF.GenerationSoftware,KiCad,Pcbnew,(7.0.0)*
G04 #@! TF.CreationDate,2023-03-25T20:45:11-04:00*
G04 #@! TF.ProjectId,eight_key_piano_standalone_V1,65696768-745f-46b6-9579-5f7069616e6f,rev?*
G04 #@! TF.SameCoordinates,Original*
G04 #@! TF.FileFunction,Copper,L2,Bot*
G04 #@! TF.FilePolarity,Positive*
%FSLAX46Y46*%
G04 Gerber Fmt 4.6, Leading zero omitted, Abs format (unit mm)*
G04 Created by KiCad (PCBNEW (7.0.0)) date 2023-03-25 20:45:11*
%MOMM*%
%LPD*%
G01*
G04 APERTURE LIST*
G04 #@! TA.AperFunction,ComponentPad*
%ADD10C,2.000000*%
G04 #@! TD*
G04 #@! TA.AperFunction,ComponentPad*
%ADD11R,1.800000X1.800000*%
G04 #@! TD*
G04 #@! TA.AperFunction,ComponentPad*
%ADD12C,1.800000*%
G04 #@! TD*
G04 #@! TA.AperFunction,ComponentPad*
%ADD13C,1.400000*%
G04 #@! TD*
G04 #@! TA.AperFunction,ComponentPad*
%ADD14O,1.400000X1.400000*%
G04 #@! TD*
G04 #@! TA.AperFunction,ComponentPad*
%ADD15R,1.700000X1.700000*%
G04 #@! TD*
G04 #@! TA.AperFunction,ComponentPad*
%ADD16O,1.700000X1.700000*%
G04 #@! TD*
G04 #@! TA.AperFunction,ComponentPad*
%ADD17C,2.340000*%
G04 #@! TD*
G04 #@! TA.AperFunction,ComponentPad*
%ADD18C,1.600000*%
G04 #@! TD*
G04 #@! TA.AperFunction,ComponentPad*
%ADD19C,1.500000*%
G04 #@! TD*
G04 #@! TA.AperFunction,ComponentPad*
%ADD20R,2.000000X2.000000*%
G04 #@! TD*
G04 #@! TA.AperFunction,ComponentPad*
%ADD21R,1.600000X1.600000*%
G04 #@! TD*
G04 #@! TA.AperFunction,ComponentPad*
%ADD22O,1.600000X1.600000*%
G04 #@! TD*
G04 #@! TA.AperFunction,Conductor*
%ADD23C,0.250000*%
G04 #@! TD*
G04 APERTURE END LIST*
D10*
X110923000Y-114971000D03*
X117423000Y-114971000D03*
X110923000Y-119471000D03*
X117423000Y-119471000D03*
D11*
X175132999Y-101980999D03*
D12*
X175133000Y-99441000D03*
D10*
X171883000Y-114971000D03*
X178383000Y-114971000D03*
X171883000Y-119471000D03*
X178383000Y-119471000D03*
D13*
X189103000Y-107696000D03*
D14*
X181482999Y-107695999D03*
D10*
X161723000Y-114971000D03*
X168223000Y-114971000D03*
X161723000Y-119471000D03*
X168223000Y-119471000D03*
D15*
X167009999Y-80644999D03*
D16*
X169549999Y-80644999D03*
X172089999Y-80644999D03*
X174629999Y-80644999D03*
X177169999Y-80644999D03*
D11*
X144652999Y-101980999D03*
D12*
X144653000Y-99441000D03*
D13*
X128143000Y-107696000D03*
D14*
X120522999Y-107695999D03*
D13*
X158623000Y-107696000D03*
D14*
X151002999Y-107695999D03*
D17*
X127573000Y-92416000D03*
X130073000Y-87416000D03*
X132573000Y-92416000D03*
D18*
X158623000Y-82911000D03*
X158623000Y-80411000D03*
X143383000Y-82891000D03*
X143383000Y-80391000D03*
D10*
X182043000Y-114971000D03*
X188543000Y-114971000D03*
X182043000Y-119471000D03*
X188543000Y-119471000D03*
D19*
X148553000Y-81661000D03*
X153433000Y-81661000D03*
D20*
X120512999Y-90550999D03*
D10*
X112913000Y-90551000D03*
D11*
X164972999Y-101980999D03*
D12*
X164973000Y-99441000D03*
D10*
X121083000Y-114971000D03*
X127583000Y-114971000D03*
X121083000Y-119471000D03*
X127583000Y-119471000D03*
X131243000Y-114971000D03*
X137743000Y-114971000D03*
X131243000Y-119471000D03*
X137743000Y-119471000D03*
D13*
X178943000Y-107696000D03*
D14*
X171322999Y-107695999D03*
D11*
X114172999Y-101980999D03*
D12*
X114173000Y-99441000D03*
D13*
X117983000Y-107696000D03*
D14*
X110362999Y-107695999D03*
D11*
X185292999Y-101980999D03*
D12*
X185293000Y-99441000D03*
D13*
X148463000Y-107696000D03*
D14*
X140842999Y-107695999D03*
D11*
X154812999Y-101980999D03*
D12*
X154813000Y-99441000D03*
D10*
X151563000Y-114971000D03*
X158063000Y-114971000D03*
X151563000Y-119471000D03*
X158063000Y-119471000D03*
D13*
X138303000Y-107696000D03*
D14*
X130682999Y-107695999D03*
D10*
X141403000Y-114971000D03*
X147903000Y-114971000D03*
X141403000Y-119471000D03*
X147903000Y-119471000D03*
D11*
X124332999Y-101980999D03*
D12*
X124333000Y-99441000D03*
D21*
X172592999Y-86740999D03*
D22*
X170052999Y-86740999D03*
X167512999Y-86740999D03*
X164972999Y-86740999D03*
X162432999Y-86740999D03*
X159892999Y-86740999D03*
X157352999Y-86740999D03*
X154812999Y-86740999D03*
X152272999Y-86740999D03*
X149732999Y-86740999D03*
X147192999Y-86740999D03*
X144652999Y-86740999D03*
X142112999Y-86740999D03*
X139572999Y-86740999D03*
X139572999Y-94360999D03*
X142112999Y-94360999D03*
X144652999Y-94360999D03*
X147192999Y-94360999D03*
X149732999Y-94360999D03*
X152272999Y-94360999D03*
X154812999Y-94360999D03*
X157352999Y-94360999D03*
X159892999Y-94360999D03*
X162432999Y-94360999D03*
X164972999Y-94360999D03*
X167512999Y-94360999D03*
X170052999Y-94360999D03*
X172592999Y-94360999D03*
D11*
X134492999Y-101980999D03*
D12*
X134493000Y-99441000D03*
D13*
X168783000Y-107696000D03*
D14*
X161162999Y-107695999D03*
D23*
X178383000Y-119471000D02*
X171883000Y-119471000D01*
X148553000Y-81661000D02*
X147283000Y-82931000D01*
X147193000Y-82931000D02*
X147153000Y-82891000D01*
X147283000Y-82931000D02*
X147193000Y-82931000D01*
X149733000Y-82841000D02*
X149733000Y-86741000D01*
X147153000Y-82891000D02*
X143383000Y-82891000D01*
X148553000Y-81661000D02*
X149733000Y-82841000D01*
X137743000Y-114971000D02*
X131243000Y-114971000D01*
X158623000Y-107696000D02*
X158623000Y-95631000D01*
X178943000Y-114411000D02*
X178383000Y-114971000D01*
X158623000Y-95631000D02*
X157353000Y-94361000D01*
X168223000Y-114971000D02*
X171883000Y-114971000D01*
X138303000Y-107696000D02*
X138303000Y-114411000D01*
X117983000Y-107696000D02*
X117983000Y-95621000D01*
X128143000Y-107696000D02*
X128143000Y-114411000D01*
X147903000Y-114971000D02*
X151563000Y-114971000D01*
X117983000Y-95621000D02*
X112913000Y-90551000D01*
X189103000Y-114411000D02*
X188543000Y-114971000D01*
X117983000Y-114411000D02*
X117423000Y-114971000D01*
X168783000Y-107696000D02*
X168783000Y-114411000D01*
X158623000Y-114411000D02*
X158063000Y-114971000D01*
X188543000Y-114971000D02*
X182043000Y-114971000D01*
X137743000Y-114971000D02*
X141403000Y-114971000D01*
X158623000Y-107696000D02*
X158623000Y-114411000D01*
X189103000Y-107696000D02*
X189103000Y-114411000D01*
X127583000Y-114971000D02*
X131243000Y-114971000D01*
X178943000Y-107696000D02*
X178943000Y-114411000D01*
X178383000Y-114971000D02*
X171883000Y-114971000D01*
X128143000Y-114411000D02*
X127583000Y-114971000D01*
X147903000Y-114971000D02*
X141403000Y-114971000D01*
X117983000Y-107696000D02*
X117983000Y-114411000D01*
X178383000Y-114971000D02*
X182043000Y-114971000D01*
X117423000Y-114971000D02*
X110923000Y-114971000D01*
X158063000Y-114971000D02*
X161723000Y-114971000D01*
X158063000Y-114971000D02*
X151563000Y-114971000D01*
X148463000Y-114411000D02*
X147903000Y-114971000D01*
X168783000Y-114411000D02*
X168223000Y-114971000D01*
X117423000Y-114971000D02*
X121083000Y-114971000D01*
X127583000Y-114971000D02*
X121083000Y-114971000D01*
X148463000Y-107696000D02*
X148463000Y-114411000D01*
X168223000Y-114971000D02*
X161723000Y-114971000D01*
X138303000Y-114411000D02*
X137743000Y-114971000D01*
X152273000Y-82821000D02*
X152273000Y-86741000D01*
X154683000Y-82911000D02*
X153433000Y-81661000D01*
X153433000Y-81661000D02*
X152273000Y-82821000D01*
X158623000Y-82911000D02*
X154683000Y-82911000D01*
X157353000Y-91186000D02*
X154178000Y-94361000D01*
X157353000Y-86741000D02*
X157353000Y-91186000D01*
X154178000Y-94361000D02*
X152273000Y-94361000D01*
X188543000Y-119471000D02*
X182043000Y-119471000D01*
X167513000Y-96901000D02*
X164973000Y-99441000D01*
X167513000Y-94361000D02*
X167513000Y-96901000D01*
X170053000Y-94361000D02*
X175133000Y-99441000D01*
X180213000Y-94361000D02*
X185293000Y-99441000D01*
X172593000Y-94361000D02*
X180213000Y-94361000D01*
X117423000Y-119471000D02*
X110923000Y-119471000D01*
X127583000Y-119471000D02*
X121083000Y-119471000D01*
X137743000Y-119471000D02*
X131243000Y-119471000D01*
X147903000Y-119471000D02*
X141403000Y-119471000D01*
X158063000Y-119471000D02*
X151563000Y-119471000D01*
X168223000Y-119471000D02*
X161723000Y-119471000D01*
X127573000Y-92416000D02*
X122378000Y-92416000D01*
X122378000Y-92416000D02*
X120513000Y-90551000D01*
M02*
