G04 #@! TF.GenerationSoftware,KiCad,Pcbnew,(7.0.0)*
G04 #@! TF.CreationDate,2023-03-25T20:45:11-04:00*
G04 #@! TF.ProjectId,eight_key_piano_standalone_V1,65696768-745f-46b6-9579-5f7069616e6f,rev?*
G04 #@! TF.SameCoordinates,Original*
G04 #@! TF.FileFunction,Legend,Top*
G04 #@! TF.FilePolarity,Positive*
%FSLAX46Y46*%
G04 Gerber Fmt 4.6, Leading zero omitted, Abs format (unit mm)*
G04 Created by KiCad (PCBNEW (7.0.0)) date 2023-03-25 20:45:11*
%MOMM*%
%LPD*%
G01*
G04 APERTURE LIST*
%ADD10C,0.150000*%
%ADD11C,0.120000*%
%ADD12C,2.000000*%
%ADD13R,1.800000X1.800000*%
%ADD14C,1.800000*%
%ADD15C,1.400000*%
%ADD16O,1.400000X1.400000*%
%ADD17R,1.700000X1.700000*%
%ADD18O,1.700000X1.700000*%
%ADD19C,2.340000*%
%ADD20C,1.600000*%
%ADD21C,1.500000*%
%ADD22R,2.000000X2.000000*%
%ADD23R,1.600000X1.600000*%
%ADD24O,1.600000X1.600000*%
G04 APERTURE END LIST*
D10*
X150256809Y-90603380D02*
X150256809Y-91317666D01*
X150256809Y-91317666D02*
X150209190Y-91460523D01*
X150209190Y-91460523D02*
X150113952Y-91555761D01*
X150113952Y-91555761D02*
X149971095Y-91603380D01*
X149971095Y-91603380D02*
X149875857Y-91603380D01*
X151209190Y-91603380D02*
X150733000Y-91603380D01*
X150733000Y-91603380D02*
X150733000Y-90603380D01*
X152113952Y-91508142D02*
X152066333Y-91555761D01*
X152066333Y-91555761D02*
X151923476Y-91603380D01*
X151923476Y-91603380D02*
X151828238Y-91603380D01*
X151828238Y-91603380D02*
X151685381Y-91555761D01*
X151685381Y-91555761D02*
X151590143Y-91460523D01*
X151590143Y-91460523D02*
X151542524Y-91365285D01*
X151542524Y-91365285D02*
X151494905Y-91174809D01*
X151494905Y-91174809D02*
X151494905Y-91031952D01*
X151494905Y-91031952D02*
X151542524Y-90841476D01*
X151542524Y-90841476D02*
X151590143Y-90746238D01*
X151590143Y-90746238D02*
X151685381Y-90651000D01*
X151685381Y-90651000D02*
X151828238Y-90603380D01*
X151828238Y-90603380D02*
X151923476Y-90603380D01*
X151923476Y-90603380D02*
X152066333Y-90651000D01*
X152066333Y-90651000D02*
X152113952Y-90698619D01*
X152828238Y-90603380D02*
X152828238Y-91317666D01*
X152828238Y-91317666D02*
X152780619Y-91460523D01*
X152780619Y-91460523D02*
X152685381Y-91555761D01*
X152685381Y-91555761D02*
X152542524Y-91603380D01*
X152542524Y-91603380D02*
X152447286Y-91603380D01*
X153780619Y-91603380D02*
X153304429Y-91603380D01*
X153304429Y-91603380D02*
X153304429Y-90603380D01*
X154685381Y-91508142D02*
X154637762Y-91555761D01*
X154637762Y-91555761D02*
X154494905Y-91603380D01*
X154494905Y-91603380D02*
X154399667Y-91603380D01*
X154399667Y-91603380D02*
X154256810Y-91555761D01*
X154256810Y-91555761D02*
X154161572Y-91460523D01*
X154161572Y-91460523D02*
X154113953Y-91365285D01*
X154113953Y-91365285D02*
X154066334Y-91174809D01*
X154066334Y-91174809D02*
X154066334Y-91031952D01*
X154066334Y-91031952D02*
X154113953Y-90841476D01*
X154113953Y-90841476D02*
X154161572Y-90746238D01*
X154161572Y-90746238D02*
X154256810Y-90651000D01*
X154256810Y-90651000D02*
X154399667Y-90603380D01*
X154399667Y-90603380D02*
X154494905Y-90603380D01*
X154494905Y-90603380D02*
X154637762Y-90651000D01*
X154637762Y-90651000D02*
X154685381Y-90698619D01*
X155399667Y-90603380D02*
X155399667Y-91317666D01*
X155399667Y-91317666D02*
X155352048Y-91460523D01*
X155352048Y-91460523D02*
X155256810Y-91555761D01*
X155256810Y-91555761D02*
X155113953Y-91603380D01*
X155113953Y-91603380D02*
X155018715Y-91603380D01*
X156352048Y-91603380D02*
X155875858Y-91603380D01*
X155875858Y-91603380D02*
X155875858Y-90603380D01*
X157256810Y-91508142D02*
X157209191Y-91555761D01*
X157209191Y-91555761D02*
X157066334Y-91603380D01*
X157066334Y-91603380D02*
X156971096Y-91603380D01*
X156971096Y-91603380D02*
X156828239Y-91555761D01*
X156828239Y-91555761D02*
X156733001Y-91460523D01*
X156733001Y-91460523D02*
X156685382Y-91365285D01*
X156685382Y-91365285D02*
X156637763Y-91174809D01*
X156637763Y-91174809D02*
X156637763Y-91031952D01*
X156637763Y-91031952D02*
X156685382Y-90841476D01*
X156685382Y-90841476D02*
X156733001Y-90746238D01*
X156733001Y-90746238D02*
X156828239Y-90651000D01*
X156828239Y-90651000D02*
X156971096Y-90603380D01*
X156971096Y-90603380D02*
X157066334Y-90603380D01*
X157066334Y-90603380D02*
X157209191Y-90651000D01*
X157209191Y-90651000D02*
X157256810Y-90698619D01*
X157971096Y-90603380D02*
X157971096Y-91317666D01*
X157971096Y-91317666D02*
X157923477Y-91460523D01*
X157923477Y-91460523D02*
X157828239Y-91555761D01*
X157828239Y-91555761D02*
X157685382Y-91603380D01*
X157685382Y-91603380D02*
X157590144Y-91603380D01*
X158923477Y-91603380D02*
X158447287Y-91603380D01*
X158447287Y-91603380D02*
X158447287Y-90603380D01*
X159828239Y-91508142D02*
X159780620Y-91555761D01*
X159780620Y-91555761D02*
X159637763Y-91603380D01*
X159637763Y-91603380D02*
X159542525Y-91603380D01*
X159542525Y-91603380D02*
X159399668Y-91555761D01*
X159399668Y-91555761D02*
X159304430Y-91460523D01*
X159304430Y-91460523D02*
X159256811Y-91365285D01*
X159256811Y-91365285D02*
X159209192Y-91174809D01*
X159209192Y-91174809D02*
X159209192Y-91031952D01*
X159209192Y-91031952D02*
X159256811Y-90841476D01*
X159256811Y-90841476D02*
X159304430Y-90746238D01*
X159304430Y-90746238D02*
X159399668Y-90651000D01*
X159399668Y-90651000D02*
X159542525Y-90603380D01*
X159542525Y-90603380D02*
X159637763Y-90603380D01*
X159637763Y-90603380D02*
X159780620Y-90651000D01*
X159780620Y-90651000D02*
X159828239Y-90698619D01*
X112839667Y-113290761D02*
X112982524Y-113338380D01*
X112982524Y-113338380D02*
X113220619Y-113338380D01*
X113220619Y-113338380D02*
X113315857Y-113290761D01*
X113315857Y-113290761D02*
X113363476Y-113243142D01*
X113363476Y-113243142D02*
X113411095Y-113147904D01*
X113411095Y-113147904D02*
X113411095Y-113052666D01*
X113411095Y-113052666D02*
X113363476Y-112957428D01*
X113363476Y-112957428D02*
X113315857Y-112909809D01*
X113315857Y-112909809D02*
X113220619Y-112862190D01*
X113220619Y-112862190D02*
X113030143Y-112814571D01*
X113030143Y-112814571D02*
X112934905Y-112766952D01*
X112934905Y-112766952D02*
X112887286Y-112719333D01*
X112887286Y-112719333D02*
X112839667Y-112624095D01*
X112839667Y-112624095D02*
X112839667Y-112528857D01*
X112839667Y-112528857D02*
X112887286Y-112433619D01*
X112887286Y-112433619D02*
X112934905Y-112386000D01*
X112934905Y-112386000D02*
X113030143Y-112338380D01*
X113030143Y-112338380D02*
X113268238Y-112338380D01*
X113268238Y-112338380D02*
X113411095Y-112386000D01*
X113744429Y-112338380D02*
X113982524Y-113338380D01*
X113982524Y-113338380D02*
X114173000Y-112624095D01*
X114173000Y-112624095D02*
X114363476Y-113338380D01*
X114363476Y-113338380D02*
X114601572Y-112338380D01*
X115506333Y-113338380D02*
X114934905Y-113338380D01*
X115220619Y-113338380D02*
X115220619Y-112338380D01*
X115220619Y-112338380D02*
X115125381Y-112481238D01*
X115125381Y-112481238D02*
X115030143Y-112576476D01*
X115030143Y-112576476D02*
X114934905Y-112624095D01*
X172540380Y-101449094D02*
X171540380Y-101449094D01*
X171540380Y-101449094D02*
X171540380Y-101210999D01*
X171540380Y-101210999D02*
X171588000Y-101068142D01*
X171588000Y-101068142D02*
X171683238Y-100972904D01*
X171683238Y-100972904D02*
X171778476Y-100925285D01*
X171778476Y-100925285D02*
X171968952Y-100877666D01*
X171968952Y-100877666D02*
X172111809Y-100877666D01*
X172111809Y-100877666D02*
X172302285Y-100925285D01*
X172302285Y-100925285D02*
X172397523Y-100972904D01*
X172397523Y-100972904D02*
X172492761Y-101068142D01*
X172492761Y-101068142D02*
X172540380Y-101210999D01*
X172540380Y-101210999D02*
X172540380Y-101449094D01*
X171540380Y-100544332D02*
X171540380Y-99877666D01*
X171540380Y-99877666D02*
X172540380Y-100306237D01*
X173799667Y-113290761D02*
X173942524Y-113338380D01*
X173942524Y-113338380D02*
X174180619Y-113338380D01*
X174180619Y-113338380D02*
X174275857Y-113290761D01*
X174275857Y-113290761D02*
X174323476Y-113243142D01*
X174323476Y-113243142D02*
X174371095Y-113147904D01*
X174371095Y-113147904D02*
X174371095Y-113052666D01*
X174371095Y-113052666D02*
X174323476Y-112957428D01*
X174323476Y-112957428D02*
X174275857Y-112909809D01*
X174275857Y-112909809D02*
X174180619Y-112862190D01*
X174180619Y-112862190D02*
X173990143Y-112814571D01*
X173990143Y-112814571D02*
X173894905Y-112766952D01*
X173894905Y-112766952D02*
X173847286Y-112719333D01*
X173847286Y-112719333D02*
X173799667Y-112624095D01*
X173799667Y-112624095D02*
X173799667Y-112528857D01*
X173799667Y-112528857D02*
X173847286Y-112433619D01*
X173847286Y-112433619D02*
X173894905Y-112386000D01*
X173894905Y-112386000D02*
X173990143Y-112338380D01*
X173990143Y-112338380D02*
X174228238Y-112338380D01*
X174228238Y-112338380D02*
X174371095Y-112386000D01*
X174704429Y-112338380D02*
X174942524Y-113338380D01*
X174942524Y-113338380D02*
X175133000Y-112624095D01*
X175133000Y-112624095D02*
X175323476Y-113338380D01*
X175323476Y-113338380D02*
X175561572Y-112338380D01*
X175847286Y-112338380D02*
X176513952Y-112338380D01*
X176513952Y-112338380D02*
X176085381Y-113338380D01*
X185126333Y-109983380D02*
X184793000Y-109507190D01*
X184554905Y-109983380D02*
X184554905Y-108983380D01*
X184554905Y-108983380D02*
X184935857Y-108983380D01*
X184935857Y-108983380D02*
X185031095Y-109031000D01*
X185031095Y-109031000D02*
X185078714Y-109078619D01*
X185078714Y-109078619D02*
X185126333Y-109173857D01*
X185126333Y-109173857D02*
X185126333Y-109316714D01*
X185126333Y-109316714D02*
X185078714Y-109411952D01*
X185078714Y-109411952D02*
X185031095Y-109459571D01*
X185031095Y-109459571D02*
X184935857Y-109507190D01*
X184935857Y-109507190D02*
X184554905Y-109507190D01*
X185697762Y-109411952D02*
X185602524Y-109364333D01*
X185602524Y-109364333D02*
X185554905Y-109316714D01*
X185554905Y-109316714D02*
X185507286Y-109221476D01*
X185507286Y-109221476D02*
X185507286Y-109173857D01*
X185507286Y-109173857D02*
X185554905Y-109078619D01*
X185554905Y-109078619D02*
X185602524Y-109031000D01*
X185602524Y-109031000D02*
X185697762Y-108983380D01*
X185697762Y-108983380D02*
X185888238Y-108983380D01*
X185888238Y-108983380D02*
X185983476Y-109031000D01*
X185983476Y-109031000D02*
X186031095Y-109078619D01*
X186031095Y-109078619D02*
X186078714Y-109173857D01*
X186078714Y-109173857D02*
X186078714Y-109221476D01*
X186078714Y-109221476D02*
X186031095Y-109316714D01*
X186031095Y-109316714D02*
X185983476Y-109364333D01*
X185983476Y-109364333D02*
X185888238Y-109411952D01*
X185888238Y-109411952D02*
X185697762Y-109411952D01*
X185697762Y-109411952D02*
X185602524Y-109459571D01*
X185602524Y-109459571D02*
X185554905Y-109507190D01*
X185554905Y-109507190D02*
X185507286Y-109602428D01*
X185507286Y-109602428D02*
X185507286Y-109792904D01*
X185507286Y-109792904D02*
X185554905Y-109888142D01*
X185554905Y-109888142D02*
X185602524Y-109935761D01*
X185602524Y-109935761D02*
X185697762Y-109983380D01*
X185697762Y-109983380D02*
X185888238Y-109983380D01*
X185888238Y-109983380D02*
X185983476Y-109935761D01*
X185983476Y-109935761D02*
X186031095Y-109888142D01*
X186031095Y-109888142D02*
X186078714Y-109792904D01*
X186078714Y-109792904D02*
X186078714Y-109602428D01*
X186078714Y-109602428D02*
X186031095Y-109507190D01*
X186031095Y-109507190D02*
X185983476Y-109459571D01*
X185983476Y-109459571D02*
X185888238Y-109411952D01*
X163639667Y-113290761D02*
X163782524Y-113338380D01*
X163782524Y-113338380D02*
X164020619Y-113338380D01*
X164020619Y-113338380D02*
X164115857Y-113290761D01*
X164115857Y-113290761D02*
X164163476Y-113243142D01*
X164163476Y-113243142D02*
X164211095Y-113147904D01*
X164211095Y-113147904D02*
X164211095Y-113052666D01*
X164211095Y-113052666D02*
X164163476Y-112957428D01*
X164163476Y-112957428D02*
X164115857Y-112909809D01*
X164115857Y-112909809D02*
X164020619Y-112862190D01*
X164020619Y-112862190D02*
X163830143Y-112814571D01*
X163830143Y-112814571D02*
X163734905Y-112766952D01*
X163734905Y-112766952D02*
X163687286Y-112719333D01*
X163687286Y-112719333D02*
X163639667Y-112624095D01*
X163639667Y-112624095D02*
X163639667Y-112528857D01*
X163639667Y-112528857D02*
X163687286Y-112433619D01*
X163687286Y-112433619D02*
X163734905Y-112386000D01*
X163734905Y-112386000D02*
X163830143Y-112338380D01*
X163830143Y-112338380D02*
X164068238Y-112338380D01*
X164068238Y-112338380D02*
X164211095Y-112386000D01*
X164544429Y-112338380D02*
X164782524Y-113338380D01*
X164782524Y-113338380D02*
X164973000Y-112624095D01*
X164973000Y-112624095D02*
X165163476Y-113338380D01*
X165163476Y-113338380D02*
X165401572Y-112338380D01*
X166211095Y-112338380D02*
X166020619Y-112338380D01*
X166020619Y-112338380D02*
X165925381Y-112386000D01*
X165925381Y-112386000D02*
X165877762Y-112433619D01*
X165877762Y-112433619D02*
X165782524Y-112576476D01*
X165782524Y-112576476D02*
X165734905Y-112766952D01*
X165734905Y-112766952D02*
X165734905Y-113147904D01*
X165734905Y-113147904D02*
X165782524Y-113243142D01*
X165782524Y-113243142D02*
X165830143Y-113290761D01*
X165830143Y-113290761D02*
X165925381Y-113338380D01*
X165925381Y-113338380D02*
X166115857Y-113338380D01*
X166115857Y-113338380D02*
X166211095Y-113290761D01*
X166211095Y-113290761D02*
X166258714Y-113243142D01*
X166258714Y-113243142D02*
X166306333Y-113147904D01*
X166306333Y-113147904D02*
X166306333Y-112909809D01*
X166306333Y-112909809D02*
X166258714Y-112814571D01*
X166258714Y-112814571D02*
X166211095Y-112766952D01*
X166211095Y-112766952D02*
X166115857Y-112719333D01*
X166115857Y-112719333D02*
X165925381Y-112719333D01*
X165925381Y-112719333D02*
X165830143Y-112766952D01*
X165830143Y-112766952D02*
X165782524Y-112814571D01*
X165782524Y-112814571D02*
X165734905Y-112909809D01*
X142060380Y-101449094D02*
X141060380Y-101449094D01*
X141060380Y-101449094D02*
X141060380Y-101210999D01*
X141060380Y-101210999D02*
X141108000Y-101068142D01*
X141108000Y-101068142D02*
X141203238Y-100972904D01*
X141203238Y-100972904D02*
X141298476Y-100925285D01*
X141298476Y-100925285D02*
X141488952Y-100877666D01*
X141488952Y-100877666D02*
X141631809Y-100877666D01*
X141631809Y-100877666D02*
X141822285Y-100925285D01*
X141822285Y-100925285D02*
X141917523Y-100972904D01*
X141917523Y-100972904D02*
X142012761Y-101068142D01*
X142012761Y-101068142D02*
X142060380Y-101210999D01*
X142060380Y-101210999D02*
X142060380Y-101449094D01*
X141393714Y-100020523D02*
X142060380Y-100020523D01*
X141012761Y-100258618D02*
X141727047Y-100496713D01*
X141727047Y-100496713D02*
X141727047Y-99877666D01*
X124166333Y-109983380D02*
X123833000Y-109507190D01*
X123594905Y-109983380D02*
X123594905Y-108983380D01*
X123594905Y-108983380D02*
X123975857Y-108983380D01*
X123975857Y-108983380D02*
X124071095Y-109031000D01*
X124071095Y-109031000D02*
X124118714Y-109078619D01*
X124118714Y-109078619D02*
X124166333Y-109173857D01*
X124166333Y-109173857D02*
X124166333Y-109316714D01*
X124166333Y-109316714D02*
X124118714Y-109411952D01*
X124118714Y-109411952D02*
X124071095Y-109459571D01*
X124071095Y-109459571D02*
X123975857Y-109507190D01*
X123975857Y-109507190D02*
X123594905Y-109507190D01*
X124547286Y-109078619D02*
X124594905Y-109031000D01*
X124594905Y-109031000D02*
X124690143Y-108983380D01*
X124690143Y-108983380D02*
X124928238Y-108983380D01*
X124928238Y-108983380D02*
X125023476Y-109031000D01*
X125023476Y-109031000D02*
X125071095Y-109078619D01*
X125071095Y-109078619D02*
X125118714Y-109173857D01*
X125118714Y-109173857D02*
X125118714Y-109269095D01*
X125118714Y-109269095D02*
X125071095Y-109411952D01*
X125071095Y-109411952D02*
X124499667Y-109983380D01*
X124499667Y-109983380D02*
X125118714Y-109983380D01*
X154646333Y-109983380D02*
X154313000Y-109507190D01*
X154074905Y-109983380D02*
X154074905Y-108983380D01*
X154074905Y-108983380D02*
X154455857Y-108983380D01*
X154455857Y-108983380D02*
X154551095Y-109031000D01*
X154551095Y-109031000D02*
X154598714Y-109078619D01*
X154598714Y-109078619D02*
X154646333Y-109173857D01*
X154646333Y-109173857D02*
X154646333Y-109316714D01*
X154646333Y-109316714D02*
X154598714Y-109411952D01*
X154598714Y-109411952D02*
X154551095Y-109459571D01*
X154551095Y-109459571D02*
X154455857Y-109507190D01*
X154455857Y-109507190D02*
X154074905Y-109507190D01*
X155551095Y-108983380D02*
X155074905Y-108983380D01*
X155074905Y-108983380D02*
X155027286Y-109459571D01*
X155027286Y-109459571D02*
X155074905Y-109411952D01*
X155074905Y-109411952D02*
X155170143Y-109364333D01*
X155170143Y-109364333D02*
X155408238Y-109364333D01*
X155408238Y-109364333D02*
X155503476Y-109411952D01*
X155503476Y-109411952D02*
X155551095Y-109459571D01*
X155551095Y-109459571D02*
X155598714Y-109554809D01*
X155598714Y-109554809D02*
X155598714Y-109792904D01*
X155598714Y-109792904D02*
X155551095Y-109888142D01*
X155551095Y-109888142D02*
X155503476Y-109935761D01*
X155503476Y-109935761D02*
X155408238Y-109983380D01*
X155408238Y-109983380D02*
X155170143Y-109983380D01*
X155170143Y-109983380D02*
X155074905Y-109935761D01*
X155074905Y-109935761D02*
X155027286Y-109888142D01*
X183959667Y-113290761D02*
X184102524Y-113338380D01*
X184102524Y-113338380D02*
X184340619Y-113338380D01*
X184340619Y-113338380D02*
X184435857Y-113290761D01*
X184435857Y-113290761D02*
X184483476Y-113243142D01*
X184483476Y-113243142D02*
X184531095Y-113147904D01*
X184531095Y-113147904D02*
X184531095Y-113052666D01*
X184531095Y-113052666D02*
X184483476Y-112957428D01*
X184483476Y-112957428D02*
X184435857Y-112909809D01*
X184435857Y-112909809D02*
X184340619Y-112862190D01*
X184340619Y-112862190D02*
X184150143Y-112814571D01*
X184150143Y-112814571D02*
X184054905Y-112766952D01*
X184054905Y-112766952D02*
X184007286Y-112719333D01*
X184007286Y-112719333D02*
X183959667Y-112624095D01*
X183959667Y-112624095D02*
X183959667Y-112528857D01*
X183959667Y-112528857D02*
X184007286Y-112433619D01*
X184007286Y-112433619D02*
X184054905Y-112386000D01*
X184054905Y-112386000D02*
X184150143Y-112338380D01*
X184150143Y-112338380D02*
X184388238Y-112338380D01*
X184388238Y-112338380D02*
X184531095Y-112386000D01*
X184864429Y-112338380D02*
X185102524Y-113338380D01*
X185102524Y-113338380D02*
X185293000Y-112624095D01*
X185293000Y-112624095D02*
X185483476Y-113338380D01*
X185483476Y-113338380D02*
X185721572Y-112338380D01*
X186245381Y-112766952D02*
X186150143Y-112719333D01*
X186150143Y-112719333D02*
X186102524Y-112671714D01*
X186102524Y-112671714D02*
X186054905Y-112576476D01*
X186054905Y-112576476D02*
X186054905Y-112528857D01*
X186054905Y-112528857D02*
X186102524Y-112433619D01*
X186102524Y-112433619D02*
X186150143Y-112386000D01*
X186150143Y-112386000D02*
X186245381Y-112338380D01*
X186245381Y-112338380D02*
X186435857Y-112338380D01*
X186435857Y-112338380D02*
X186531095Y-112386000D01*
X186531095Y-112386000D02*
X186578714Y-112433619D01*
X186578714Y-112433619D02*
X186626333Y-112528857D01*
X186626333Y-112528857D02*
X186626333Y-112576476D01*
X186626333Y-112576476D02*
X186578714Y-112671714D01*
X186578714Y-112671714D02*
X186531095Y-112719333D01*
X186531095Y-112719333D02*
X186435857Y-112766952D01*
X186435857Y-112766952D02*
X186245381Y-112766952D01*
X186245381Y-112766952D02*
X186150143Y-112814571D01*
X186150143Y-112814571D02*
X186102524Y-112862190D01*
X186102524Y-112862190D02*
X186054905Y-112957428D01*
X186054905Y-112957428D02*
X186054905Y-113147904D01*
X186054905Y-113147904D02*
X186102524Y-113243142D01*
X186102524Y-113243142D02*
X186150143Y-113290761D01*
X186150143Y-113290761D02*
X186245381Y-113338380D01*
X186245381Y-113338380D02*
X186435857Y-113338380D01*
X186435857Y-113338380D02*
X186531095Y-113290761D01*
X186531095Y-113290761D02*
X186578714Y-113243142D01*
X186578714Y-113243142D02*
X186626333Y-113147904D01*
X186626333Y-113147904D02*
X186626333Y-112957428D01*
X186626333Y-112957428D02*
X186578714Y-112862190D01*
X186578714Y-112862190D02*
X186531095Y-112814571D01*
X186531095Y-112814571D02*
X186435857Y-112766952D01*
X120142048Y-93077428D02*
X120903953Y-93077428D01*
X120523000Y-93458380D02*
X120523000Y-92696476D01*
X162380380Y-101449094D02*
X161380380Y-101449094D01*
X161380380Y-101449094D02*
X161380380Y-101210999D01*
X161380380Y-101210999D02*
X161428000Y-101068142D01*
X161428000Y-101068142D02*
X161523238Y-100972904D01*
X161523238Y-100972904D02*
X161618476Y-100925285D01*
X161618476Y-100925285D02*
X161808952Y-100877666D01*
X161808952Y-100877666D02*
X161951809Y-100877666D01*
X161951809Y-100877666D02*
X162142285Y-100925285D01*
X162142285Y-100925285D02*
X162237523Y-100972904D01*
X162237523Y-100972904D02*
X162332761Y-101068142D01*
X162332761Y-101068142D02*
X162380380Y-101210999D01*
X162380380Y-101210999D02*
X162380380Y-101449094D01*
X161380380Y-100020523D02*
X161380380Y-100210999D01*
X161380380Y-100210999D02*
X161428000Y-100306237D01*
X161428000Y-100306237D02*
X161475619Y-100353856D01*
X161475619Y-100353856D02*
X161618476Y-100449094D01*
X161618476Y-100449094D02*
X161808952Y-100496713D01*
X161808952Y-100496713D02*
X162189904Y-100496713D01*
X162189904Y-100496713D02*
X162285142Y-100449094D01*
X162285142Y-100449094D02*
X162332761Y-100401475D01*
X162332761Y-100401475D02*
X162380380Y-100306237D01*
X162380380Y-100306237D02*
X162380380Y-100115761D01*
X162380380Y-100115761D02*
X162332761Y-100020523D01*
X162332761Y-100020523D02*
X162285142Y-99972904D01*
X162285142Y-99972904D02*
X162189904Y-99925285D01*
X162189904Y-99925285D02*
X161951809Y-99925285D01*
X161951809Y-99925285D02*
X161856571Y-99972904D01*
X161856571Y-99972904D02*
X161808952Y-100020523D01*
X161808952Y-100020523D02*
X161761333Y-100115761D01*
X161761333Y-100115761D02*
X161761333Y-100306237D01*
X161761333Y-100306237D02*
X161808952Y-100401475D01*
X161808952Y-100401475D02*
X161856571Y-100449094D01*
X161856571Y-100449094D02*
X161951809Y-100496713D01*
X122999667Y-113290761D02*
X123142524Y-113338380D01*
X123142524Y-113338380D02*
X123380619Y-113338380D01*
X123380619Y-113338380D02*
X123475857Y-113290761D01*
X123475857Y-113290761D02*
X123523476Y-113243142D01*
X123523476Y-113243142D02*
X123571095Y-113147904D01*
X123571095Y-113147904D02*
X123571095Y-113052666D01*
X123571095Y-113052666D02*
X123523476Y-112957428D01*
X123523476Y-112957428D02*
X123475857Y-112909809D01*
X123475857Y-112909809D02*
X123380619Y-112862190D01*
X123380619Y-112862190D02*
X123190143Y-112814571D01*
X123190143Y-112814571D02*
X123094905Y-112766952D01*
X123094905Y-112766952D02*
X123047286Y-112719333D01*
X123047286Y-112719333D02*
X122999667Y-112624095D01*
X122999667Y-112624095D02*
X122999667Y-112528857D01*
X122999667Y-112528857D02*
X123047286Y-112433619D01*
X123047286Y-112433619D02*
X123094905Y-112386000D01*
X123094905Y-112386000D02*
X123190143Y-112338380D01*
X123190143Y-112338380D02*
X123428238Y-112338380D01*
X123428238Y-112338380D02*
X123571095Y-112386000D01*
X123904429Y-112338380D02*
X124142524Y-113338380D01*
X124142524Y-113338380D02*
X124333000Y-112624095D01*
X124333000Y-112624095D02*
X124523476Y-113338380D01*
X124523476Y-113338380D02*
X124761572Y-112338380D01*
X125094905Y-112433619D02*
X125142524Y-112386000D01*
X125142524Y-112386000D02*
X125237762Y-112338380D01*
X125237762Y-112338380D02*
X125475857Y-112338380D01*
X125475857Y-112338380D02*
X125571095Y-112386000D01*
X125571095Y-112386000D02*
X125618714Y-112433619D01*
X125618714Y-112433619D02*
X125666333Y-112528857D01*
X125666333Y-112528857D02*
X125666333Y-112624095D01*
X125666333Y-112624095D02*
X125618714Y-112766952D01*
X125618714Y-112766952D02*
X125047286Y-113338380D01*
X125047286Y-113338380D02*
X125666333Y-113338380D01*
X133159667Y-113290761D02*
X133302524Y-113338380D01*
X133302524Y-113338380D02*
X133540619Y-113338380D01*
X133540619Y-113338380D02*
X133635857Y-113290761D01*
X133635857Y-113290761D02*
X133683476Y-113243142D01*
X133683476Y-113243142D02*
X133731095Y-113147904D01*
X133731095Y-113147904D02*
X133731095Y-113052666D01*
X133731095Y-113052666D02*
X133683476Y-112957428D01*
X133683476Y-112957428D02*
X133635857Y-112909809D01*
X133635857Y-112909809D02*
X133540619Y-112862190D01*
X133540619Y-112862190D02*
X133350143Y-112814571D01*
X133350143Y-112814571D02*
X133254905Y-112766952D01*
X133254905Y-112766952D02*
X133207286Y-112719333D01*
X133207286Y-112719333D02*
X133159667Y-112624095D01*
X133159667Y-112624095D02*
X133159667Y-112528857D01*
X133159667Y-112528857D02*
X133207286Y-112433619D01*
X133207286Y-112433619D02*
X133254905Y-112386000D01*
X133254905Y-112386000D02*
X133350143Y-112338380D01*
X133350143Y-112338380D02*
X133588238Y-112338380D01*
X133588238Y-112338380D02*
X133731095Y-112386000D01*
X134064429Y-112338380D02*
X134302524Y-113338380D01*
X134302524Y-113338380D02*
X134493000Y-112624095D01*
X134493000Y-112624095D02*
X134683476Y-113338380D01*
X134683476Y-113338380D02*
X134921572Y-112338380D01*
X135207286Y-112338380D02*
X135826333Y-112338380D01*
X135826333Y-112338380D02*
X135493000Y-112719333D01*
X135493000Y-112719333D02*
X135635857Y-112719333D01*
X135635857Y-112719333D02*
X135731095Y-112766952D01*
X135731095Y-112766952D02*
X135778714Y-112814571D01*
X135778714Y-112814571D02*
X135826333Y-112909809D01*
X135826333Y-112909809D02*
X135826333Y-113147904D01*
X135826333Y-113147904D02*
X135778714Y-113243142D01*
X135778714Y-113243142D02*
X135731095Y-113290761D01*
X135731095Y-113290761D02*
X135635857Y-113338380D01*
X135635857Y-113338380D02*
X135350143Y-113338380D01*
X135350143Y-113338380D02*
X135254905Y-113290761D01*
X135254905Y-113290761D02*
X135207286Y-113243142D01*
X174966333Y-109983380D02*
X174633000Y-109507190D01*
X174394905Y-109983380D02*
X174394905Y-108983380D01*
X174394905Y-108983380D02*
X174775857Y-108983380D01*
X174775857Y-108983380D02*
X174871095Y-109031000D01*
X174871095Y-109031000D02*
X174918714Y-109078619D01*
X174918714Y-109078619D02*
X174966333Y-109173857D01*
X174966333Y-109173857D02*
X174966333Y-109316714D01*
X174966333Y-109316714D02*
X174918714Y-109411952D01*
X174918714Y-109411952D02*
X174871095Y-109459571D01*
X174871095Y-109459571D02*
X174775857Y-109507190D01*
X174775857Y-109507190D02*
X174394905Y-109507190D01*
X175299667Y-108983380D02*
X175966333Y-108983380D01*
X175966333Y-108983380D02*
X175537762Y-109983380D01*
X111580380Y-101449094D02*
X110580380Y-101449094D01*
X110580380Y-101449094D02*
X110580380Y-101210999D01*
X110580380Y-101210999D02*
X110628000Y-101068142D01*
X110628000Y-101068142D02*
X110723238Y-100972904D01*
X110723238Y-100972904D02*
X110818476Y-100925285D01*
X110818476Y-100925285D02*
X111008952Y-100877666D01*
X111008952Y-100877666D02*
X111151809Y-100877666D01*
X111151809Y-100877666D02*
X111342285Y-100925285D01*
X111342285Y-100925285D02*
X111437523Y-100972904D01*
X111437523Y-100972904D02*
X111532761Y-101068142D01*
X111532761Y-101068142D02*
X111580380Y-101210999D01*
X111580380Y-101210999D02*
X111580380Y-101449094D01*
X111580380Y-99925285D02*
X111580380Y-100496713D01*
X111580380Y-100210999D02*
X110580380Y-100210999D01*
X110580380Y-100210999D02*
X110723238Y-100306237D01*
X110723238Y-100306237D02*
X110818476Y-100401475D01*
X110818476Y-100401475D02*
X110866095Y-100496713D01*
X114006333Y-109983380D02*
X113673000Y-109507190D01*
X113434905Y-109983380D02*
X113434905Y-108983380D01*
X113434905Y-108983380D02*
X113815857Y-108983380D01*
X113815857Y-108983380D02*
X113911095Y-109031000D01*
X113911095Y-109031000D02*
X113958714Y-109078619D01*
X113958714Y-109078619D02*
X114006333Y-109173857D01*
X114006333Y-109173857D02*
X114006333Y-109316714D01*
X114006333Y-109316714D02*
X113958714Y-109411952D01*
X113958714Y-109411952D02*
X113911095Y-109459571D01*
X113911095Y-109459571D02*
X113815857Y-109507190D01*
X113815857Y-109507190D02*
X113434905Y-109507190D01*
X114958714Y-109983380D02*
X114387286Y-109983380D01*
X114673000Y-109983380D02*
X114673000Y-108983380D01*
X114673000Y-108983380D02*
X114577762Y-109126238D01*
X114577762Y-109126238D02*
X114482524Y-109221476D01*
X114482524Y-109221476D02*
X114387286Y-109269095D01*
X182700380Y-101449094D02*
X181700380Y-101449094D01*
X181700380Y-101449094D02*
X181700380Y-101210999D01*
X181700380Y-101210999D02*
X181748000Y-101068142D01*
X181748000Y-101068142D02*
X181843238Y-100972904D01*
X181843238Y-100972904D02*
X181938476Y-100925285D01*
X181938476Y-100925285D02*
X182128952Y-100877666D01*
X182128952Y-100877666D02*
X182271809Y-100877666D01*
X182271809Y-100877666D02*
X182462285Y-100925285D01*
X182462285Y-100925285D02*
X182557523Y-100972904D01*
X182557523Y-100972904D02*
X182652761Y-101068142D01*
X182652761Y-101068142D02*
X182700380Y-101210999D01*
X182700380Y-101210999D02*
X182700380Y-101449094D01*
X182128952Y-100306237D02*
X182081333Y-100401475D01*
X182081333Y-100401475D02*
X182033714Y-100449094D01*
X182033714Y-100449094D02*
X181938476Y-100496713D01*
X181938476Y-100496713D02*
X181890857Y-100496713D01*
X181890857Y-100496713D02*
X181795619Y-100449094D01*
X181795619Y-100449094D02*
X181748000Y-100401475D01*
X181748000Y-100401475D02*
X181700380Y-100306237D01*
X181700380Y-100306237D02*
X181700380Y-100115761D01*
X181700380Y-100115761D02*
X181748000Y-100020523D01*
X181748000Y-100020523D02*
X181795619Y-99972904D01*
X181795619Y-99972904D02*
X181890857Y-99925285D01*
X181890857Y-99925285D02*
X181938476Y-99925285D01*
X181938476Y-99925285D02*
X182033714Y-99972904D01*
X182033714Y-99972904D02*
X182081333Y-100020523D01*
X182081333Y-100020523D02*
X182128952Y-100115761D01*
X182128952Y-100115761D02*
X182128952Y-100306237D01*
X182128952Y-100306237D02*
X182176571Y-100401475D01*
X182176571Y-100401475D02*
X182224190Y-100449094D01*
X182224190Y-100449094D02*
X182319428Y-100496713D01*
X182319428Y-100496713D02*
X182509904Y-100496713D01*
X182509904Y-100496713D02*
X182605142Y-100449094D01*
X182605142Y-100449094D02*
X182652761Y-100401475D01*
X182652761Y-100401475D02*
X182700380Y-100306237D01*
X182700380Y-100306237D02*
X182700380Y-100115761D01*
X182700380Y-100115761D02*
X182652761Y-100020523D01*
X182652761Y-100020523D02*
X182605142Y-99972904D01*
X182605142Y-99972904D02*
X182509904Y-99925285D01*
X182509904Y-99925285D02*
X182319428Y-99925285D01*
X182319428Y-99925285D02*
X182224190Y-99972904D01*
X182224190Y-99972904D02*
X182176571Y-100020523D01*
X182176571Y-100020523D02*
X182128952Y-100115761D01*
X144486333Y-109983380D02*
X144153000Y-109507190D01*
X143914905Y-109983380D02*
X143914905Y-108983380D01*
X143914905Y-108983380D02*
X144295857Y-108983380D01*
X144295857Y-108983380D02*
X144391095Y-109031000D01*
X144391095Y-109031000D02*
X144438714Y-109078619D01*
X144438714Y-109078619D02*
X144486333Y-109173857D01*
X144486333Y-109173857D02*
X144486333Y-109316714D01*
X144486333Y-109316714D02*
X144438714Y-109411952D01*
X144438714Y-109411952D02*
X144391095Y-109459571D01*
X144391095Y-109459571D02*
X144295857Y-109507190D01*
X144295857Y-109507190D02*
X143914905Y-109507190D01*
X145343476Y-109316714D02*
X145343476Y-109983380D01*
X145105381Y-108935761D02*
X144867286Y-109650047D01*
X144867286Y-109650047D02*
X145486333Y-109650047D01*
X152220380Y-101449094D02*
X151220380Y-101449094D01*
X151220380Y-101449094D02*
X151220380Y-101210999D01*
X151220380Y-101210999D02*
X151268000Y-101068142D01*
X151268000Y-101068142D02*
X151363238Y-100972904D01*
X151363238Y-100972904D02*
X151458476Y-100925285D01*
X151458476Y-100925285D02*
X151648952Y-100877666D01*
X151648952Y-100877666D02*
X151791809Y-100877666D01*
X151791809Y-100877666D02*
X151982285Y-100925285D01*
X151982285Y-100925285D02*
X152077523Y-100972904D01*
X152077523Y-100972904D02*
X152172761Y-101068142D01*
X152172761Y-101068142D02*
X152220380Y-101210999D01*
X152220380Y-101210999D02*
X152220380Y-101449094D01*
X151220380Y-99972904D02*
X151220380Y-100449094D01*
X151220380Y-100449094D02*
X151696571Y-100496713D01*
X151696571Y-100496713D02*
X151648952Y-100449094D01*
X151648952Y-100449094D02*
X151601333Y-100353856D01*
X151601333Y-100353856D02*
X151601333Y-100115761D01*
X151601333Y-100115761D02*
X151648952Y-100020523D01*
X151648952Y-100020523D02*
X151696571Y-99972904D01*
X151696571Y-99972904D02*
X151791809Y-99925285D01*
X151791809Y-99925285D02*
X152029904Y-99925285D01*
X152029904Y-99925285D02*
X152125142Y-99972904D01*
X152125142Y-99972904D02*
X152172761Y-100020523D01*
X152172761Y-100020523D02*
X152220380Y-100115761D01*
X152220380Y-100115761D02*
X152220380Y-100353856D01*
X152220380Y-100353856D02*
X152172761Y-100449094D01*
X152172761Y-100449094D02*
X152125142Y-100496713D01*
X153479667Y-113290761D02*
X153622524Y-113338380D01*
X153622524Y-113338380D02*
X153860619Y-113338380D01*
X153860619Y-113338380D02*
X153955857Y-113290761D01*
X153955857Y-113290761D02*
X154003476Y-113243142D01*
X154003476Y-113243142D02*
X154051095Y-113147904D01*
X154051095Y-113147904D02*
X154051095Y-113052666D01*
X154051095Y-113052666D02*
X154003476Y-112957428D01*
X154003476Y-112957428D02*
X153955857Y-112909809D01*
X153955857Y-112909809D02*
X153860619Y-112862190D01*
X153860619Y-112862190D02*
X153670143Y-112814571D01*
X153670143Y-112814571D02*
X153574905Y-112766952D01*
X153574905Y-112766952D02*
X153527286Y-112719333D01*
X153527286Y-112719333D02*
X153479667Y-112624095D01*
X153479667Y-112624095D02*
X153479667Y-112528857D01*
X153479667Y-112528857D02*
X153527286Y-112433619D01*
X153527286Y-112433619D02*
X153574905Y-112386000D01*
X153574905Y-112386000D02*
X153670143Y-112338380D01*
X153670143Y-112338380D02*
X153908238Y-112338380D01*
X153908238Y-112338380D02*
X154051095Y-112386000D01*
X154384429Y-112338380D02*
X154622524Y-113338380D01*
X154622524Y-113338380D02*
X154813000Y-112624095D01*
X154813000Y-112624095D02*
X155003476Y-113338380D01*
X155003476Y-113338380D02*
X155241572Y-112338380D01*
X156098714Y-112338380D02*
X155622524Y-112338380D01*
X155622524Y-112338380D02*
X155574905Y-112814571D01*
X155574905Y-112814571D02*
X155622524Y-112766952D01*
X155622524Y-112766952D02*
X155717762Y-112719333D01*
X155717762Y-112719333D02*
X155955857Y-112719333D01*
X155955857Y-112719333D02*
X156051095Y-112766952D01*
X156051095Y-112766952D02*
X156098714Y-112814571D01*
X156098714Y-112814571D02*
X156146333Y-112909809D01*
X156146333Y-112909809D02*
X156146333Y-113147904D01*
X156146333Y-113147904D02*
X156098714Y-113243142D01*
X156098714Y-113243142D02*
X156051095Y-113290761D01*
X156051095Y-113290761D02*
X155955857Y-113338380D01*
X155955857Y-113338380D02*
X155717762Y-113338380D01*
X155717762Y-113338380D02*
X155622524Y-113290761D01*
X155622524Y-113290761D02*
X155574905Y-113243142D01*
X134326333Y-109983380D02*
X133993000Y-109507190D01*
X133754905Y-109983380D02*
X133754905Y-108983380D01*
X133754905Y-108983380D02*
X134135857Y-108983380D01*
X134135857Y-108983380D02*
X134231095Y-109031000D01*
X134231095Y-109031000D02*
X134278714Y-109078619D01*
X134278714Y-109078619D02*
X134326333Y-109173857D01*
X134326333Y-109173857D02*
X134326333Y-109316714D01*
X134326333Y-109316714D02*
X134278714Y-109411952D01*
X134278714Y-109411952D02*
X134231095Y-109459571D01*
X134231095Y-109459571D02*
X134135857Y-109507190D01*
X134135857Y-109507190D02*
X133754905Y-109507190D01*
X134659667Y-108983380D02*
X135278714Y-108983380D01*
X135278714Y-108983380D02*
X134945381Y-109364333D01*
X134945381Y-109364333D02*
X135088238Y-109364333D01*
X135088238Y-109364333D02*
X135183476Y-109411952D01*
X135183476Y-109411952D02*
X135231095Y-109459571D01*
X135231095Y-109459571D02*
X135278714Y-109554809D01*
X135278714Y-109554809D02*
X135278714Y-109792904D01*
X135278714Y-109792904D02*
X135231095Y-109888142D01*
X135231095Y-109888142D02*
X135183476Y-109935761D01*
X135183476Y-109935761D02*
X135088238Y-109983380D01*
X135088238Y-109983380D02*
X134802524Y-109983380D01*
X134802524Y-109983380D02*
X134707286Y-109935761D01*
X134707286Y-109935761D02*
X134659667Y-109888142D01*
X143319667Y-113290761D02*
X143462524Y-113338380D01*
X143462524Y-113338380D02*
X143700619Y-113338380D01*
X143700619Y-113338380D02*
X143795857Y-113290761D01*
X143795857Y-113290761D02*
X143843476Y-113243142D01*
X143843476Y-113243142D02*
X143891095Y-113147904D01*
X143891095Y-113147904D02*
X143891095Y-113052666D01*
X143891095Y-113052666D02*
X143843476Y-112957428D01*
X143843476Y-112957428D02*
X143795857Y-112909809D01*
X143795857Y-112909809D02*
X143700619Y-112862190D01*
X143700619Y-112862190D02*
X143510143Y-112814571D01*
X143510143Y-112814571D02*
X143414905Y-112766952D01*
X143414905Y-112766952D02*
X143367286Y-112719333D01*
X143367286Y-112719333D02*
X143319667Y-112624095D01*
X143319667Y-112624095D02*
X143319667Y-112528857D01*
X143319667Y-112528857D02*
X143367286Y-112433619D01*
X143367286Y-112433619D02*
X143414905Y-112386000D01*
X143414905Y-112386000D02*
X143510143Y-112338380D01*
X143510143Y-112338380D02*
X143748238Y-112338380D01*
X143748238Y-112338380D02*
X143891095Y-112386000D01*
X144224429Y-112338380D02*
X144462524Y-113338380D01*
X144462524Y-113338380D02*
X144653000Y-112624095D01*
X144653000Y-112624095D02*
X144843476Y-113338380D01*
X144843476Y-113338380D02*
X145081572Y-112338380D01*
X145891095Y-112671714D02*
X145891095Y-113338380D01*
X145653000Y-112290761D02*
X145414905Y-113005047D01*
X145414905Y-113005047D02*
X146033952Y-113005047D01*
X121740380Y-101449094D02*
X120740380Y-101449094D01*
X120740380Y-101449094D02*
X120740380Y-101210999D01*
X120740380Y-101210999D02*
X120788000Y-101068142D01*
X120788000Y-101068142D02*
X120883238Y-100972904D01*
X120883238Y-100972904D02*
X120978476Y-100925285D01*
X120978476Y-100925285D02*
X121168952Y-100877666D01*
X121168952Y-100877666D02*
X121311809Y-100877666D01*
X121311809Y-100877666D02*
X121502285Y-100925285D01*
X121502285Y-100925285D02*
X121597523Y-100972904D01*
X121597523Y-100972904D02*
X121692761Y-101068142D01*
X121692761Y-101068142D02*
X121740380Y-101210999D01*
X121740380Y-101210999D02*
X121740380Y-101449094D01*
X120835619Y-100496713D02*
X120788000Y-100449094D01*
X120788000Y-100449094D02*
X120740380Y-100353856D01*
X120740380Y-100353856D02*
X120740380Y-100115761D01*
X120740380Y-100115761D02*
X120788000Y-100020523D01*
X120788000Y-100020523D02*
X120835619Y-99972904D01*
X120835619Y-99972904D02*
X120930857Y-99925285D01*
X120930857Y-99925285D02*
X121026095Y-99925285D01*
X121026095Y-99925285D02*
X121168952Y-99972904D01*
X121168952Y-99972904D02*
X121740380Y-100544332D01*
X121740380Y-100544332D02*
X121740380Y-99925285D01*
X131900380Y-101449094D02*
X130900380Y-101449094D01*
X130900380Y-101449094D02*
X130900380Y-101210999D01*
X130900380Y-101210999D02*
X130948000Y-101068142D01*
X130948000Y-101068142D02*
X131043238Y-100972904D01*
X131043238Y-100972904D02*
X131138476Y-100925285D01*
X131138476Y-100925285D02*
X131328952Y-100877666D01*
X131328952Y-100877666D02*
X131471809Y-100877666D01*
X131471809Y-100877666D02*
X131662285Y-100925285D01*
X131662285Y-100925285D02*
X131757523Y-100972904D01*
X131757523Y-100972904D02*
X131852761Y-101068142D01*
X131852761Y-101068142D02*
X131900380Y-101210999D01*
X131900380Y-101210999D02*
X131900380Y-101449094D01*
X130900380Y-100544332D02*
X130900380Y-99925285D01*
X130900380Y-99925285D02*
X131281333Y-100258618D01*
X131281333Y-100258618D02*
X131281333Y-100115761D01*
X131281333Y-100115761D02*
X131328952Y-100020523D01*
X131328952Y-100020523D02*
X131376571Y-99972904D01*
X131376571Y-99972904D02*
X131471809Y-99925285D01*
X131471809Y-99925285D02*
X131709904Y-99925285D01*
X131709904Y-99925285D02*
X131805142Y-99972904D01*
X131805142Y-99972904D02*
X131852761Y-100020523D01*
X131852761Y-100020523D02*
X131900380Y-100115761D01*
X131900380Y-100115761D02*
X131900380Y-100401475D01*
X131900380Y-100401475D02*
X131852761Y-100496713D01*
X131852761Y-100496713D02*
X131805142Y-100544332D01*
X164806333Y-109983380D02*
X164473000Y-109507190D01*
X164234905Y-109983380D02*
X164234905Y-108983380D01*
X164234905Y-108983380D02*
X164615857Y-108983380D01*
X164615857Y-108983380D02*
X164711095Y-109031000D01*
X164711095Y-109031000D02*
X164758714Y-109078619D01*
X164758714Y-109078619D02*
X164806333Y-109173857D01*
X164806333Y-109173857D02*
X164806333Y-109316714D01*
X164806333Y-109316714D02*
X164758714Y-109411952D01*
X164758714Y-109411952D02*
X164711095Y-109459571D01*
X164711095Y-109459571D02*
X164615857Y-109507190D01*
X164615857Y-109507190D02*
X164234905Y-109507190D01*
X165663476Y-108983380D02*
X165473000Y-108983380D01*
X165473000Y-108983380D02*
X165377762Y-109031000D01*
X165377762Y-109031000D02*
X165330143Y-109078619D01*
X165330143Y-109078619D02*
X165234905Y-109221476D01*
X165234905Y-109221476D02*
X165187286Y-109411952D01*
X165187286Y-109411952D02*
X165187286Y-109792904D01*
X165187286Y-109792904D02*
X165234905Y-109888142D01*
X165234905Y-109888142D02*
X165282524Y-109935761D01*
X165282524Y-109935761D02*
X165377762Y-109983380D01*
X165377762Y-109983380D02*
X165568238Y-109983380D01*
X165568238Y-109983380D02*
X165663476Y-109935761D01*
X165663476Y-109935761D02*
X165711095Y-109888142D01*
X165711095Y-109888142D02*
X165758714Y-109792904D01*
X165758714Y-109792904D02*
X165758714Y-109554809D01*
X165758714Y-109554809D02*
X165711095Y-109459571D01*
X165711095Y-109459571D02*
X165663476Y-109411952D01*
X165663476Y-109411952D02*
X165568238Y-109364333D01*
X165568238Y-109364333D02*
X165377762Y-109364333D01*
X165377762Y-109364333D02*
X165282524Y-109411952D01*
X165282524Y-109411952D02*
X165234905Y-109459571D01*
X165234905Y-109459571D02*
X165187286Y-109554809D01*
D11*
X110673000Y-116471000D02*
X110673000Y-117971000D01*
X111923000Y-120471000D02*
X116423000Y-120471000D01*
X116423000Y-113971000D02*
X111923000Y-113971000D01*
X117673000Y-117971000D02*
X117673000Y-116471000D01*
X173897000Y-102271000D02*
X174053000Y-102271000D01*
X176213000Y-102271000D02*
X176369000Y-102271000D01*
X174054392Y-99038666D02*
G75*
G03*
X173897485Y-102270999I1078608J-1672334D01*
G01*
X174053164Y-99669871D02*
G75*
G03*
X174053001Y-101751960I1079836J-1041129D01*
G01*
X176212999Y-101751960D02*
G75*
G03*
X176212836Y-99669871I-1079999J1040960D01*
G01*
X176368515Y-102270999D02*
G75*
G03*
X176211608Y-99038666I-1235515J1559999D01*
G01*
X171633000Y-116471000D02*
X171633000Y-117971000D01*
X172883000Y-120471000D02*
X177383000Y-120471000D01*
X177383000Y-113971000D02*
X172883000Y-113971000D01*
X178633000Y-117971000D02*
X178633000Y-116471000D01*
X188163000Y-107696000D02*
X187213000Y-107696000D01*
X187213000Y-108616000D02*
X187213000Y-106776000D01*
X187213000Y-106776000D02*
X183373000Y-106776000D01*
X183373000Y-108616000D02*
X187213000Y-108616000D01*
X183373000Y-106776000D02*
X183373000Y-108616000D01*
X182423000Y-107696000D02*
X183373000Y-107696000D01*
X161473000Y-116471000D02*
X161473000Y-117971000D01*
X162723000Y-120471000D02*
X167223000Y-120471000D01*
X167223000Y-113971000D02*
X162723000Y-113971000D01*
X168473000Y-117971000D02*
X168473000Y-116471000D01*
X165680000Y-81975000D02*
X165680000Y-80645000D01*
X167010000Y-81975000D02*
X165680000Y-81975000D01*
X168280000Y-81975000D02*
X178500000Y-81975000D01*
X168280000Y-81975000D02*
X168280000Y-79315000D01*
X178500000Y-81975000D02*
X178500000Y-79315000D01*
X168280000Y-79315000D02*
X178500000Y-79315000D01*
X143417000Y-102271000D02*
X143573000Y-102271000D01*
X145733000Y-102271000D02*
X145889000Y-102271000D01*
X143574392Y-99038666D02*
G75*
G03*
X143417485Y-102270999I1078608J-1672334D01*
G01*
X143573164Y-99669871D02*
G75*
G03*
X143573001Y-101751960I1079836J-1041129D01*
G01*
X145732999Y-101751960D02*
G75*
G03*
X145732836Y-99669871I-1079999J1040960D01*
G01*
X145888515Y-102270999D02*
G75*
G03*
X145731608Y-99038666I-1235515J1559999D01*
G01*
X127203000Y-107696000D02*
X126253000Y-107696000D01*
X126253000Y-108616000D02*
X126253000Y-106776000D01*
X126253000Y-106776000D02*
X122413000Y-106776000D01*
X122413000Y-108616000D02*
X126253000Y-108616000D01*
X122413000Y-106776000D02*
X122413000Y-108616000D01*
X121463000Y-107696000D02*
X122413000Y-107696000D01*
X157683000Y-107696000D02*
X156733000Y-107696000D01*
X156733000Y-108616000D02*
X156733000Y-106776000D01*
X156733000Y-106776000D02*
X152893000Y-106776000D01*
X152893000Y-108616000D02*
X156733000Y-108616000D01*
X152893000Y-106776000D02*
X152893000Y-108616000D01*
X151943000Y-107696000D02*
X152893000Y-107696000D01*
X125052000Y-92537000D02*
X126147000Y-92537000D01*
X125052000Y-92537000D02*
X125052000Y-87496000D01*
X128999000Y-92537000D02*
X131148000Y-92537000D01*
X128999000Y-92537000D02*
X131148000Y-92537000D01*
X133998000Y-92537000D02*
X135093000Y-92537000D01*
X135093000Y-92537000D02*
X135093000Y-87496000D01*
X128453000Y-91179000D02*
X128453000Y-87496000D01*
X131693000Y-91179000D02*
X131693000Y-87496000D01*
X125052000Y-87496000D02*
X128648000Y-87496000D01*
X128453000Y-87496000D02*
X128648000Y-87496000D01*
X131498000Y-87496000D02*
X131693000Y-87496000D01*
X131498000Y-87496000D02*
X135093000Y-87496000D01*
X157253000Y-84281000D02*
X159993000Y-84281000D01*
X157253000Y-84281000D02*
X157253000Y-79041000D01*
X159993000Y-84281000D02*
X159993000Y-79041000D01*
X157253000Y-79041000D02*
X159993000Y-79041000D01*
X142013000Y-84261000D02*
X144753000Y-84261000D01*
X142013000Y-84261000D02*
X142013000Y-79021000D01*
X144753000Y-84261000D02*
X144753000Y-79021000D01*
X142013000Y-79021000D02*
X144753000Y-79021000D01*
X181793000Y-116471000D02*
X181793000Y-117971000D01*
X183043000Y-120471000D02*
X187543000Y-120471000D01*
X187543000Y-113971000D02*
X183043000Y-113971000D01*
X188793000Y-117971000D02*
X188793000Y-116471000D01*
X147793000Y-79136000D02*
X154193000Y-79136000D01*
X147793000Y-84186000D02*
X154193000Y-84186000D01*
X147793000Y-79136000D02*
G75*
G03*
X147793000Y-84186000I0J-2525000D01*
G01*
X154193000Y-84186000D02*
G75*
G03*
X154193000Y-79136000I0J2525000D01*
G01*
X122813000Y-90551000D02*
G75*
G03*
X122813000Y-90551000I-6100000J0D01*
G01*
X163737000Y-102271000D02*
X163893000Y-102271000D01*
X166053000Y-102271000D02*
X166209000Y-102271000D01*
X163894392Y-99038666D02*
G75*
G03*
X163737485Y-102270999I1078608J-1672334D01*
G01*
X163893164Y-99669871D02*
G75*
G03*
X163893001Y-101751960I1079836J-1041129D01*
G01*
X166052999Y-101751960D02*
G75*
G03*
X166052836Y-99669871I-1079999J1040960D01*
G01*
X166208515Y-102270999D02*
G75*
G03*
X166051608Y-99038666I-1235515J1559999D01*
G01*
X120833000Y-116471000D02*
X120833000Y-117971000D01*
X122083000Y-120471000D02*
X126583000Y-120471000D01*
X126583000Y-113971000D02*
X122083000Y-113971000D01*
X127833000Y-117971000D02*
X127833000Y-116471000D01*
X130993000Y-116471000D02*
X130993000Y-117971000D01*
X132243000Y-120471000D02*
X136743000Y-120471000D01*
X136743000Y-113971000D02*
X132243000Y-113971000D01*
X137993000Y-117971000D02*
X137993000Y-116471000D01*
X178003000Y-107696000D02*
X177053000Y-107696000D01*
X177053000Y-108616000D02*
X177053000Y-106776000D01*
X177053000Y-106776000D02*
X173213000Y-106776000D01*
X173213000Y-108616000D02*
X177053000Y-108616000D01*
X173213000Y-106776000D02*
X173213000Y-108616000D01*
X172263000Y-107696000D02*
X173213000Y-107696000D01*
X112937000Y-102271000D02*
X113093000Y-102271000D01*
X115253000Y-102271000D02*
X115409000Y-102271000D01*
X113094392Y-99038666D02*
G75*
G03*
X112937485Y-102270999I1078608J-1672334D01*
G01*
X113093164Y-99669871D02*
G75*
G03*
X113093001Y-101751960I1079836J-1041129D01*
G01*
X115252999Y-101751960D02*
G75*
G03*
X115252836Y-99669871I-1079999J1040960D01*
G01*
X115408515Y-102270999D02*
G75*
G03*
X115251608Y-99038666I-1235515J1559999D01*
G01*
X117043000Y-107696000D02*
X116093000Y-107696000D01*
X116093000Y-108616000D02*
X116093000Y-106776000D01*
X116093000Y-106776000D02*
X112253000Y-106776000D01*
X112253000Y-108616000D02*
X116093000Y-108616000D01*
X112253000Y-106776000D02*
X112253000Y-108616000D01*
X111303000Y-107696000D02*
X112253000Y-107696000D01*
X184057000Y-102271000D02*
X184213000Y-102271000D01*
X186373000Y-102271000D02*
X186529000Y-102271000D01*
X184214392Y-99038666D02*
G75*
G03*
X184057485Y-102270999I1078608J-1672334D01*
G01*
X184213164Y-99669871D02*
G75*
G03*
X184213001Y-101751960I1079836J-1041129D01*
G01*
X186372999Y-101751960D02*
G75*
G03*
X186372836Y-99669871I-1079999J1040960D01*
G01*
X186528515Y-102270999D02*
G75*
G03*
X186371608Y-99038666I-1235515J1559999D01*
G01*
X147523000Y-107696000D02*
X146573000Y-107696000D01*
X146573000Y-108616000D02*
X146573000Y-106776000D01*
X146573000Y-106776000D02*
X142733000Y-106776000D01*
X142733000Y-108616000D02*
X146573000Y-108616000D01*
X142733000Y-106776000D02*
X142733000Y-108616000D01*
X141783000Y-107696000D02*
X142733000Y-107696000D01*
X153577000Y-102271000D02*
X153733000Y-102271000D01*
X155893000Y-102271000D02*
X156049000Y-102271000D01*
X153734392Y-99038666D02*
G75*
G03*
X153577485Y-102270999I1078608J-1672334D01*
G01*
X153733164Y-99669871D02*
G75*
G03*
X153733001Y-101751960I1079836J-1041129D01*
G01*
X155892999Y-101751960D02*
G75*
G03*
X155892836Y-99669871I-1079999J1040960D01*
G01*
X156048515Y-102270999D02*
G75*
G03*
X155891608Y-99038666I-1235515J1559999D01*
G01*
X151313000Y-116471000D02*
X151313000Y-117971000D01*
X152563000Y-120471000D02*
X157063000Y-120471000D01*
X157063000Y-113971000D02*
X152563000Y-113971000D01*
X158313000Y-117971000D02*
X158313000Y-116471000D01*
X137363000Y-107696000D02*
X136413000Y-107696000D01*
X136413000Y-108616000D02*
X136413000Y-106776000D01*
X136413000Y-106776000D02*
X132573000Y-106776000D01*
X132573000Y-108616000D02*
X136413000Y-108616000D01*
X132573000Y-106776000D02*
X132573000Y-108616000D01*
X131623000Y-107696000D02*
X132573000Y-107696000D01*
X141153000Y-116471000D02*
X141153000Y-117971000D01*
X142403000Y-120471000D02*
X146903000Y-120471000D01*
X146903000Y-113971000D02*
X142403000Y-113971000D01*
X148153000Y-117971000D02*
X148153000Y-116471000D01*
X123097000Y-102271000D02*
X123253000Y-102271000D01*
X125413000Y-102271000D02*
X125569000Y-102271000D01*
X123254392Y-99038666D02*
G75*
G03*
X123097485Y-102270999I1078608J-1672334D01*
G01*
X123253164Y-99669871D02*
G75*
G03*
X123253001Y-101751960I1079836J-1041129D01*
G01*
X125412999Y-101751960D02*
G75*
G03*
X125412836Y-99669871I-1079999J1040960D01*
G01*
X125568515Y-102270999D02*
G75*
G03*
X125411608Y-99038666I-1235515J1559999D01*
G01*
X173923000Y-87901000D02*
X138243000Y-87901000D01*
X138243000Y-87901000D02*
X138243000Y-93201000D01*
X173923000Y-89551000D02*
X173923000Y-87901000D01*
X173923000Y-93201000D02*
X173923000Y-91551000D01*
X138243000Y-93201000D02*
X173923000Y-93201000D01*
X173923000Y-89551000D02*
G75*
G03*
X173923000Y-91551000I0J-1000000D01*
G01*
X133257000Y-102271000D02*
X133413000Y-102271000D01*
X135573000Y-102271000D02*
X135729000Y-102271000D01*
X133414392Y-99038666D02*
G75*
G03*
X133257485Y-102270999I1078608J-1672334D01*
G01*
X133413164Y-99669871D02*
G75*
G03*
X133413001Y-101751960I1079836J-1041129D01*
G01*
X135572999Y-101751960D02*
G75*
G03*
X135572836Y-99669871I-1079999J1040960D01*
G01*
X135728515Y-102270999D02*
G75*
G03*
X135571608Y-99038666I-1235515J1559999D01*
G01*
X167843000Y-107696000D02*
X166893000Y-107696000D01*
X166893000Y-108616000D02*
X166893000Y-106776000D01*
X166893000Y-106776000D02*
X163053000Y-106776000D01*
X163053000Y-108616000D02*
X166893000Y-108616000D01*
X163053000Y-106776000D02*
X163053000Y-108616000D01*
X162103000Y-107696000D02*
X163053000Y-107696000D01*
%LPC*%
D12*
X110923000Y-114971000D03*
X117423000Y-114971000D03*
X110923000Y-119471000D03*
X117423000Y-119471000D03*
D13*
X175132999Y-101980999D03*
D14*
X175133000Y-99441000D03*
D12*
X171883000Y-114971000D03*
X178383000Y-114971000D03*
X171883000Y-119471000D03*
X178383000Y-119471000D03*
D15*
X189103000Y-107696000D03*
D16*
X181482999Y-107695999D03*
D12*
X161723000Y-114971000D03*
X168223000Y-114971000D03*
X161723000Y-119471000D03*
X168223000Y-119471000D03*
D17*
X167009999Y-80644999D03*
D18*
X169549999Y-80644999D03*
X172089999Y-80644999D03*
X174629999Y-80644999D03*
X177169999Y-80644999D03*
D13*
X144652999Y-101980999D03*
D14*
X144653000Y-99441000D03*
D15*
X128143000Y-107696000D03*
D16*
X120522999Y-107695999D03*
D15*
X158623000Y-107696000D03*
D16*
X151002999Y-107695999D03*
D19*
X127573000Y-92416000D03*
X130073000Y-87416000D03*
X132573000Y-92416000D03*
D20*
X158623000Y-82911000D03*
X158623000Y-80411000D03*
X143383000Y-82891000D03*
X143383000Y-80391000D03*
D12*
X182043000Y-114971000D03*
X188543000Y-114971000D03*
X182043000Y-119471000D03*
X188543000Y-119471000D03*
D21*
X148553000Y-81661000D03*
X153433000Y-81661000D03*
D22*
X120512999Y-90550999D03*
D12*
X112913000Y-90551000D03*
D13*
X164972999Y-101980999D03*
D14*
X164973000Y-99441000D03*
D12*
X121083000Y-114971000D03*
X127583000Y-114971000D03*
X121083000Y-119471000D03*
X127583000Y-119471000D03*
X131243000Y-114971000D03*
X137743000Y-114971000D03*
X131243000Y-119471000D03*
X137743000Y-119471000D03*
D15*
X178943000Y-107696000D03*
D16*
X171322999Y-107695999D03*
D13*
X114172999Y-101980999D03*
D14*
X114173000Y-99441000D03*
D15*
X117983000Y-107696000D03*
D16*
X110362999Y-107695999D03*
D13*
X185292999Y-101980999D03*
D14*
X185293000Y-99441000D03*
D15*
X148463000Y-107696000D03*
D16*
X140842999Y-107695999D03*
D13*
X154812999Y-101980999D03*
D14*
X154813000Y-99441000D03*
D12*
X151563000Y-114971000D03*
X158063000Y-114971000D03*
X151563000Y-119471000D03*
X158063000Y-119471000D03*
D15*
X138303000Y-107696000D03*
D16*
X130682999Y-107695999D03*
D12*
X141403000Y-114971000D03*
X147903000Y-114971000D03*
X141403000Y-119471000D03*
X147903000Y-119471000D03*
D13*
X124332999Y-101980999D03*
D14*
X124333000Y-99441000D03*
D23*
X172592999Y-86740999D03*
D24*
X170052999Y-86740999D03*
X167512999Y-86740999D03*
X164972999Y-86740999D03*
X162432999Y-86740999D03*
X159892999Y-86740999D03*
X157352999Y-86740999D03*
X154812999Y-86740999D03*
X152272999Y-86740999D03*
X149732999Y-86740999D03*
X147192999Y-86740999D03*
X144652999Y-86740999D03*
X142112999Y-86740999D03*
X139572999Y-86740999D03*
X139572999Y-94360999D03*
X142112999Y-94360999D03*
X144652999Y-94360999D03*
X147192999Y-94360999D03*
X149732999Y-94360999D03*
X152272999Y-94360999D03*
X154812999Y-94360999D03*
X157352999Y-94360999D03*
X159892999Y-94360999D03*
X162432999Y-94360999D03*
X164972999Y-94360999D03*
X167512999Y-94360999D03*
X170052999Y-94360999D03*
X172592999Y-94360999D03*
D13*
X134492999Y-101980999D03*
D14*
X134493000Y-99441000D03*
D15*
X168783000Y-107696000D03*
D16*
X161162999Y-107695999D03*
M02*
