M48
; DRILL file {KiCad (7.0.0)} date Sat Mar 25 20:45:51 2023
; FORMAT={-:-/ absolute / metric / decimal}
; #@! TF.CreationDate,2023-03-25T20:45:51-04:00
; #@! TF.GenerationSoftware,Kicad,Pcbnew,(7.0.0)
; #@! TF.FileFunction,Plated,1,2,PTH
FMAT,2
METRIC
; #@! TA.AperFunction,Plated,PTH,ComponentDrill
T1C0.700
; #@! TA.AperFunction,Plated,PTH,ComponentDrill
T2C0.800
; #@! TA.AperFunction,Plated,PTH,ComponentDrill
T3C0.900
; #@! TA.AperFunction,Plated,PTH,ComponentDrill
T4C1.000
; #@! TA.AperFunction,Plated,PTH,ComponentDrill
T5C1.100
; #@! TA.AperFunction,Plated,PTH,ComponentDrill
T6C1.300
%
G90
G05
T1
X110.363Y-107.696
X117.983Y-107.696
X120.523Y-107.696
X128.143Y-107.696
X130.683Y-107.696
X138.303Y-107.696
X140.843Y-107.696
X148.463Y-107.696
X151.003Y-107.696
X158.623Y-107.696
X161.163Y-107.696
X168.783Y-107.696
X171.323Y-107.696
X178.943Y-107.696
X181.483Y-107.696
X189.103Y-107.696
T2
X139.573Y-86.741
X139.573Y-94.361
X142.113Y-86.741
X142.113Y-94.361
X143.383Y-80.391
X143.383Y-82.891
X144.653Y-86.741
X144.653Y-94.361
X147.193Y-86.741
X147.193Y-94.361
X148.553Y-81.661
X149.733Y-86.741
X149.733Y-94.361
X152.273Y-86.741
X152.273Y-94.361
X153.433Y-81.661
X154.813Y-86.741
X154.813Y-94.361
X157.353Y-86.741
X157.353Y-94.361
X158.623Y-80.411
X158.623Y-82.911
X159.893Y-86.741
X159.893Y-94.361
X162.433Y-86.741
X162.433Y-94.361
X164.973Y-86.741
X164.973Y-94.361
X167.513Y-86.741
X167.513Y-94.361
X170.053Y-86.741
X170.053Y-94.361
X172.593Y-86.741
X172.593Y-94.361
T3
X114.173Y-99.441
X114.173Y-101.981
X124.333Y-99.441
X124.333Y-101.981
X134.493Y-99.441
X134.493Y-101.981
X144.653Y-99.441
X144.653Y-101.981
X154.813Y-99.441
X154.813Y-101.981
X164.973Y-99.441
X164.973Y-101.981
X175.133Y-99.441
X175.133Y-101.981
X185.293Y-99.441
X185.293Y-101.981
T4
X112.913Y-90.551
X120.513Y-90.551
X167.01Y-80.645
X169.55Y-80.645
X172.09Y-80.645
X174.63Y-80.645
X177.17Y-80.645
T5
X110.923Y-114.971
X110.923Y-119.471
X117.423Y-114.971
X117.423Y-119.471
X121.083Y-114.971
X121.083Y-119.471
X127.583Y-114.971
X127.583Y-119.471
X131.243Y-114.971
X131.243Y-119.471
X137.743Y-114.971
X137.743Y-119.471
X141.403Y-114.971
X141.403Y-119.471
X147.903Y-114.971
X147.903Y-119.471
X151.563Y-114.971
X151.563Y-119.471
X158.063Y-114.971
X158.063Y-119.471
X161.723Y-114.971
X161.723Y-119.471
X168.223Y-114.971
X168.223Y-119.471
X171.883Y-114.971
X171.883Y-119.471
X178.383Y-114.971
X178.383Y-119.471
X182.043Y-114.971
X182.043Y-119.471
X188.543Y-114.971
X188.543Y-119.471
T6
X127.573Y-92.416
X130.073Y-87.416
X132.573Y-92.416
T0
M30
