G04 #@! TF.GenerationSoftware,KiCad,Pcbnew,(7.0.0)*
G04 #@! TF.CreationDate,2023-03-25T20:45:11-04:00*
G04 #@! TF.ProjectId,eight_key_piano_standalone_V1,65696768-745f-46b6-9579-5f7069616e6f,rev?*
G04 #@! TF.SameCoordinates,Original*
G04 #@! TF.FileFunction,Legend,Bot*
G04 #@! TF.FilePolarity,Positive*
%FSLAX46Y46*%
G04 Gerber Fmt 4.6, Leading zero omitted, Abs format (unit mm)*
G04 Created by KiCad (PCBNEW (7.0.0)) date 2023-03-25 20:45:11*
%MOMM*%
%LPD*%
G01*
G04 APERTURE LIST*
%ADD10C,0.150000*%
%ADD11C,2.000000*%
%ADD12R,1.800000X1.800000*%
%ADD13C,1.800000*%
%ADD14C,1.400000*%
%ADD15O,1.400000X1.400000*%
%ADD16R,1.700000X1.700000*%
%ADD17O,1.700000X1.700000*%
%ADD18C,2.340000*%
%ADD19C,1.600000*%
%ADD20C,1.500000*%
%ADD21R,2.000000X2.000000*%
%ADD22R,1.600000X1.600000*%
%ADD23O,1.600000X1.600000*%
G04 APERTURE END LIST*
D10*
X132730904Y-122591380D02*
X132730904Y-121591380D01*
X132302333Y-122543761D02*
X132207095Y-122591380D01*
X132207095Y-122591380D02*
X132016619Y-122591380D01*
X132016619Y-122591380D02*
X131921381Y-122543761D01*
X131921381Y-122543761D02*
X131873762Y-122448523D01*
X131873762Y-122448523D02*
X131873762Y-122400904D01*
X131873762Y-122400904D02*
X131921381Y-122305666D01*
X131921381Y-122305666D02*
X132016619Y-122258047D01*
X132016619Y-122258047D02*
X132159476Y-122258047D01*
X132159476Y-122258047D02*
X132254714Y-122210428D01*
X132254714Y-122210428D02*
X132302333Y-122115190D01*
X132302333Y-122115190D02*
X132302333Y-122067571D01*
X132302333Y-122067571D02*
X132254714Y-121972333D01*
X132254714Y-121972333D02*
X132159476Y-121924714D01*
X132159476Y-121924714D02*
X132016619Y-121924714D01*
X132016619Y-121924714D02*
X131921381Y-121972333D01*
X131445190Y-122591380D02*
X131445190Y-121591380D01*
X131016619Y-122591380D02*
X131016619Y-122067571D01*
X131016619Y-122067571D02*
X131064238Y-121972333D01*
X131064238Y-121972333D02*
X131159476Y-121924714D01*
X131159476Y-121924714D02*
X131302333Y-121924714D01*
X131302333Y-121924714D02*
X131397571Y-121972333D01*
X131397571Y-121972333D02*
X131445190Y-122019952D01*
X130111857Y-122591380D02*
X130111857Y-122067571D01*
X130111857Y-122067571D02*
X130159476Y-121972333D01*
X130159476Y-121972333D02*
X130254714Y-121924714D01*
X130254714Y-121924714D02*
X130445190Y-121924714D01*
X130445190Y-121924714D02*
X130540428Y-121972333D01*
X130111857Y-122543761D02*
X130207095Y-122591380D01*
X130207095Y-122591380D02*
X130445190Y-122591380D01*
X130445190Y-122591380D02*
X130540428Y-122543761D01*
X130540428Y-122543761D02*
X130588047Y-122448523D01*
X130588047Y-122448523D02*
X130588047Y-122353285D01*
X130588047Y-122353285D02*
X130540428Y-122258047D01*
X130540428Y-122258047D02*
X130445190Y-122210428D01*
X130445190Y-122210428D02*
X130207095Y-122210428D01*
X130207095Y-122210428D02*
X130111857Y-122162809D01*
X129207095Y-122591380D02*
X129207095Y-122067571D01*
X129207095Y-122067571D02*
X129254714Y-121972333D01*
X129254714Y-121972333D02*
X129349952Y-121924714D01*
X129349952Y-121924714D02*
X129540428Y-121924714D01*
X129540428Y-121924714D02*
X129635666Y-121972333D01*
X129207095Y-122543761D02*
X129302333Y-122591380D01*
X129302333Y-122591380D02*
X129540428Y-122591380D01*
X129540428Y-122591380D02*
X129635666Y-122543761D01*
X129635666Y-122543761D02*
X129683285Y-122448523D01*
X129683285Y-122448523D02*
X129683285Y-122353285D01*
X129683285Y-122353285D02*
X129635666Y-122258047D01*
X129635666Y-122258047D02*
X129540428Y-122210428D01*
X129540428Y-122210428D02*
X129302333Y-122210428D01*
X129302333Y-122210428D02*
X129207095Y-122162809D01*
X128730904Y-121924714D02*
X128730904Y-122591380D01*
X128730904Y-122019952D02*
X128683285Y-121972333D01*
X128683285Y-121972333D02*
X128588047Y-121924714D01*
X128588047Y-121924714D02*
X128445190Y-121924714D01*
X128445190Y-121924714D02*
X128349952Y-121972333D01*
X128349952Y-121972333D02*
X128302333Y-122067571D01*
X128302333Y-122067571D02*
X128302333Y-122591380D01*
X127368999Y-121591380D02*
X126797571Y-121591380D01*
X127083285Y-122591380D02*
X127083285Y-121591380D01*
X126035666Y-122591380D02*
X126035666Y-122067571D01*
X126035666Y-122067571D02*
X126083285Y-121972333D01*
X126083285Y-121972333D02*
X126178523Y-121924714D01*
X126178523Y-121924714D02*
X126368999Y-121924714D01*
X126368999Y-121924714D02*
X126464237Y-121972333D01*
X126035666Y-122543761D02*
X126130904Y-122591380D01*
X126130904Y-122591380D02*
X126368999Y-122591380D01*
X126368999Y-122591380D02*
X126464237Y-122543761D01*
X126464237Y-122543761D02*
X126511856Y-122448523D01*
X126511856Y-122448523D02*
X126511856Y-122353285D01*
X126511856Y-122353285D02*
X126464237Y-122258047D01*
X126464237Y-122258047D02*
X126368999Y-122210428D01*
X126368999Y-122210428D02*
X126130904Y-122210428D01*
X126130904Y-122210428D02*
X126035666Y-122162809D01*
X125559475Y-122591380D02*
X125559475Y-121924714D01*
X125559475Y-122019952D02*
X125511856Y-121972333D01*
X125511856Y-121972333D02*
X125416618Y-121924714D01*
X125416618Y-121924714D02*
X125273761Y-121924714D01*
X125273761Y-121924714D02*
X125178523Y-121972333D01*
X125178523Y-121972333D02*
X125130904Y-122067571D01*
X125130904Y-122067571D02*
X125130904Y-122591380D01*
X125130904Y-122067571D02*
X125083285Y-121972333D01*
X125083285Y-121972333D02*
X124988047Y-121924714D01*
X124988047Y-121924714D02*
X124845190Y-121924714D01*
X124845190Y-121924714D02*
X124749951Y-121972333D01*
X124749951Y-121972333D02*
X124702332Y-122067571D01*
X124702332Y-122067571D02*
X124702332Y-122591380D01*
X123797571Y-122591380D02*
X123797571Y-122067571D01*
X123797571Y-122067571D02*
X123845190Y-121972333D01*
X123845190Y-121972333D02*
X123940428Y-121924714D01*
X123940428Y-121924714D02*
X124130904Y-121924714D01*
X124130904Y-121924714D02*
X124226142Y-121972333D01*
X123797571Y-122543761D02*
X123892809Y-122591380D01*
X123892809Y-122591380D02*
X124130904Y-122591380D01*
X124130904Y-122591380D02*
X124226142Y-122543761D01*
X124226142Y-122543761D02*
X124273761Y-122448523D01*
X124273761Y-122448523D02*
X124273761Y-122353285D01*
X124273761Y-122353285D02*
X124226142Y-122258047D01*
X124226142Y-122258047D02*
X124130904Y-122210428D01*
X124130904Y-122210428D02*
X123892809Y-122210428D01*
X123892809Y-122210428D02*
X123797571Y-122162809D01*
X123321380Y-122591380D02*
X123321380Y-121924714D01*
X123321380Y-122115190D02*
X123273761Y-122019952D01*
X123273761Y-122019952D02*
X123226142Y-121972333D01*
X123226142Y-121972333D02*
X123130904Y-121924714D01*
X123130904Y-121924714D02*
X123035666Y-121924714D01*
X122273761Y-122591380D02*
X122273761Y-122067571D01*
X122273761Y-122067571D02*
X122321380Y-121972333D01*
X122321380Y-121972333D02*
X122416618Y-121924714D01*
X122416618Y-121924714D02*
X122607094Y-121924714D01*
X122607094Y-121924714D02*
X122702332Y-121972333D01*
X122273761Y-122543761D02*
X122368999Y-122591380D01*
X122368999Y-122591380D02*
X122607094Y-122591380D01*
X122607094Y-122591380D02*
X122702332Y-122543761D01*
X122702332Y-122543761D02*
X122749951Y-122448523D01*
X122749951Y-122448523D02*
X122749951Y-122353285D01*
X122749951Y-122353285D02*
X122702332Y-122258047D01*
X122702332Y-122258047D02*
X122607094Y-122210428D01*
X122607094Y-122210428D02*
X122368999Y-122210428D01*
X122368999Y-122210428D02*
X122273761Y-122162809D01*
X121797570Y-121924714D02*
X121797570Y-122924714D01*
X121797570Y-121972333D02*
X121702332Y-121924714D01*
X121702332Y-121924714D02*
X121511856Y-121924714D01*
X121511856Y-121924714D02*
X121416618Y-121972333D01*
X121416618Y-121972333D02*
X121368999Y-122019952D01*
X121368999Y-122019952D02*
X121321380Y-122115190D01*
X121321380Y-122115190D02*
X121321380Y-122400904D01*
X121321380Y-122400904D02*
X121368999Y-122496142D01*
X121368999Y-122496142D02*
X121416618Y-122543761D01*
X121416618Y-122543761D02*
X121511856Y-122591380D01*
X121511856Y-122591380D02*
X121702332Y-122591380D01*
X121702332Y-122591380D02*
X121797570Y-122543761D01*
X120464237Y-122591380D02*
X120464237Y-122067571D01*
X120464237Y-122067571D02*
X120511856Y-121972333D01*
X120511856Y-121972333D02*
X120607094Y-121924714D01*
X120607094Y-121924714D02*
X120797570Y-121924714D01*
X120797570Y-121924714D02*
X120892808Y-121972333D01*
X120464237Y-122543761D02*
X120559475Y-122591380D01*
X120559475Y-122591380D02*
X120797570Y-122591380D01*
X120797570Y-122591380D02*
X120892808Y-122543761D01*
X120892808Y-122543761D02*
X120940427Y-122448523D01*
X120940427Y-122448523D02*
X120940427Y-122353285D01*
X120940427Y-122353285D02*
X120892808Y-122258047D01*
X120892808Y-122258047D02*
X120797570Y-122210428D01*
X120797570Y-122210428D02*
X120559475Y-122210428D01*
X120559475Y-122210428D02*
X120464237Y-122162809D01*
X119845189Y-122591380D02*
X119940427Y-122543761D01*
X119940427Y-122543761D02*
X119988046Y-122448523D01*
X119988046Y-122448523D02*
X119988046Y-121591380D01*
X119321379Y-122591380D02*
X119416617Y-122543761D01*
X119416617Y-122543761D02*
X119464236Y-122448523D01*
X119464236Y-122448523D02*
X119464236Y-121591380D01*
X118940426Y-122591380D02*
X118940426Y-121924714D01*
X118940426Y-121591380D02*
X118988045Y-121639000D01*
X118988045Y-121639000D02*
X118940426Y-121686619D01*
X118940426Y-121686619D02*
X118892807Y-121639000D01*
X118892807Y-121639000D02*
X118940426Y-121591380D01*
X118940426Y-121591380D02*
X118940426Y-121686619D01*
X115007093Y-121591380D02*
X114673760Y-122591380D01*
X114673760Y-122591380D02*
X114340427Y-121591380D01*
X113483284Y-122591380D02*
X114054712Y-122591380D01*
X113768998Y-122591380D02*
X113768998Y-121591380D01*
X113768998Y-121591380D02*
X113864236Y-121734238D01*
X113864236Y-121734238D02*
X113959474Y-121829476D01*
X113959474Y-121829476D02*
X114054712Y-121877095D01*
X113054712Y-122496142D02*
X113007093Y-122543761D01*
X113007093Y-122543761D02*
X113054712Y-122591380D01*
X113054712Y-122591380D02*
X113102331Y-122543761D01*
X113102331Y-122543761D02*
X113054712Y-122496142D01*
X113054712Y-122496142D02*
X113054712Y-122591380D01*
X112388046Y-121591380D02*
X112292808Y-121591380D01*
X112292808Y-121591380D02*
X112197570Y-121639000D01*
X112197570Y-121639000D02*
X112149951Y-121686619D01*
X112149951Y-121686619D02*
X112102332Y-121781857D01*
X112102332Y-121781857D02*
X112054713Y-121972333D01*
X112054713Y-121972333D02*
X112054713Y-122210428D01*
X112054713Y-122210428D02*
X112102332Y-122400904D01*
X112102332Y-122400904D02*
X112149951Y-122496142D01*
X112149951Y-122496142D02*
X112197570Y-122543761D01*
X112197570Y-122543761D02*
X112292808Y-122591380D01*
X112292808Y-122591380D02*
X112388046Y-122591380D01*
X112388046Y-122591380D02*
X112483284Y-122543761D01*
X112483284Y-122543761D02*
X112530903Y-122496142D01*
X112530903Y-122496142D02*
X112578522Y-122400904D01*
X112578522Y-122400904D02*
X112626141Y-122210428D01*
X112626141Y-122210428D02*
X112626141Y-121972333D01*
X112626141Y-121972333D02*
X112578522Y-121781857D01*
X112578522Y-121781857D02*
X112530903Y-121686619D01*
X112530903Y-121686619D02*
X112483284Y-121639000D01*
X112483284Y-121639000D02*
X112388046Y-121591380D01*
%LPC*%
D11*
X110923000Y-114971000D03*
X117423000Y-114971000D03*
X110923000Y-119471000D03*
X117423000Y-119471000D03*
D12*
X175132999Y-101980999D03*
D13*
X175133000Y-99441000D03*
D11*
X171883000Y-114971000D03*
X178383000Y-114971000D03*
X171883000Y-119471000D03*
X178383000Y-119471000D03*
D14*
X189103000Y-107696000D03*
D15*
X181482999Y-107695999D03*
D11*
X161723000Y-114971000D03*
X168223000Y-114971000D03*
X161723000Y-119471000D03*
X168223000Y-119471000D03*
D16*
X167009999Y-80644999D03*
D17*
X169549999Y-80644999D03*
X172089999Y-80644999D03*
X174629999Y-80644999D03*
X177169999Y-80644999D03*
D12*
X144652999Y-101980999D03*
D13*
X144653000Y-99441000D03*
D14*
X128143000Y-107696000D03*
D15*
X120522999Y-107695999D03*
D14*
X158623000Y-107696000D03*
D15*
X151002999Y-107695999D03*
D18*
X127573000Y-92416000D03*
X130073000Y-87416000D03*
X132573000Y-92416000D03*
D19*
X158623000Y-82911000D03*
X158623000Y-80411000D03*
X143383000Y-82891000D03*
X143383000Y-80391000D03*
D11*
X182043000Y-114971000D03*
X188543000Y-114971000D03*
X182043000Y-119471000D03*
X188543000Y-119471000D03*
D20*
X148553000Y-81661000D03*
X153433000Y-81661000D03*
D21*
X120512999Y-90550999D03*
D11*
X112913000Y-90551000D03*
D12*
X164972999Y-101980999D03*
D13*
X164973000Y-99441000D03*
D11*
X121083000Y-114971000D03*
X127583000Y-114971000D03*
X121083000Y-119471000D03*
X127583000Y-119471000D03*
X131243000Y-114971000D03*
X137743000Y-114971000D03*
X131243000Y-119471000D03*
X137743000Y-119471000D03*
D14*
X178943000Y-107696000D03*
D15*
X171322999Y-107695999D03*
D12*
X114172999Y-101980999D03*
D13*
X114173000Y-99441000D03*
D14*
X117983000Y-107696000D03*
D15*
X110362999Y-107695999D03*
D12*
X185292999Y-101980999D03*
D13*
X185293000Y-99441000D03*
D14*
X148463000Y-107696000D03*
D15*
X140842999Y-107695999D03*
D12*
X154812999Y-101980999D03*
D13*
X154813000Y-99441000D03*
D11*
X151563000Y-114971000D03*
X158063000Y-114971000D03*
X151563000Y-119471000D03*
X158063000Y-119471000D03*
D14*
X138303000Y-107696000D03*
D15*
X130682999Y-107695999D03*
D11*
X141403000Y-114971000D03*
X147903000Y-114971000D03*
X141403000Y-119471000D03*
X147903000Y-119471000D03*
D12*
X124332999Y-101980999D03*
D13*
X124333000Y-99441000D03*
D22*
X172592999Y-86740999D03*
D23*
X170052999Y-86740999D03*
X167512999Y-86740999D03*
X164972999Y-86740999D03*
X162432999Y-86740999D03*
X159892999Y-86740999D03*
X157352999Y-86740999D03*
X154812999Y-86740999D03*
X152272999Y-86740999D03*
X149732999Y-86740999D03*
X147192999Y-86740999D03*
X144652999Y-86740999D03*
X142112999Y-86740999D03*
X139572999Y-86740999D03*
X139572999Y-94360999D03*
X142112999Y-94360999D03*
X144652999Y-94360999D03*
X147192999Y-94360999D03*
X149732999Y-94360999D03*
X152272999Y-94360999D03*
X154812999Y-94360999D03*
X157352999Y-94360999D03*
X159892999Y-94360999D03*
X162432999Y-94360999D03*
X164972999Y-94360999D03*
X167512999Y-94360999D03*
X170052999Y-94360999D03*
X172592999Y-94360999D03*
D12*
X134492999Y-101980999D03*
D13*
X134493000Y-99441000D03*
D14*
X168783000Y-107696000D03*
D15*
X161162999Y-107695999D03*
M02*
